<?xml version="1.0" encoding="utf-8"?>
<!-- Generator: Adobe Illustrator 19.0.0, SVG Export Plug-In . SVG Version: 6.00 Build 0)  -->
<svg version="1.1" id="Layer_1" xmlns="http://www.w3.org/2000/svg" xmlns:xlink="http://www.w3.org/1999/xlink" x="0px" y="0px"
	 viewBox="-249 373.9 96 95" style="enable-background:new -249 373.9 96 95;" xml:space="preserve">
<style type="text/css">
	.st0{fill:#E01C2F;}
	.st1{fill:#B34B87;}
	.st2{fill:#62A777;}
	.st3{fill:#63C7F2;}
	.st4{fill:#52BFD1;}
	.st5{fill:#FDC50A;}
	.st6{fill:#6A3A8C;}
	.st7{fill:#C22927;}
	.st8{fill:#0095C9;}
	.st9{fill:#8CBF32;}
</style>
<g id="XMLID_135_" transform="translate(1765.012 533)">
	<path id="XMLID_220_" class="st0" d="M-2010-91.4c-2.7,7.7-4,13.5-4,17.1c-0.1,1.8,0.4,3.6,1.5,5c1,1.3,2.9,2.7,5.8,4.1
		c0.2,0.1,0.3,0.1,0.5,0.2v-35.9C-2007.6-97.7-2008.9-94.6-2010-91.4z"/>
	<path id="XMLID_219_" class="st1" d="M-1999.2-114.8c-2.2,4-4.2,7.9-6,11.8c-0.3,0.7-0.7,1.5-1,2.2v35.9c0.7,0.3,1.4,0.5,2.2,0.5
		c0.6-0.1,0.9-0.7,0.9-1.8c0-1-0.2-1.9-0.4-2.9c-0.2-0.7-0.3-1.5-0.4-2.2c0-2.3,1.1-6.7,3.3-13.1c1.1-3.3,2.5-7,4.2-11.2v-24.2
		C-1997.3-118.2-1998.2-116.6-1999.2-114.8z"/>
	<path id="XMLID_218_" class="st1" d="M-1996.4-124.2v-7.2c-0.4,0.3-0.8,0.6-1.2,0.9c-1.7,1.3-3.3,2.6-4.7,3.7
		c-1.4,1.1-2.7,2.2-4,3.4v4.7C-2003.1-120.8-1999.8-122.6-1996.4-124.2z"/>
	<path id="XMLID_217_" class="st1" d="M-2006.2-100.8V-65l0,0L-2006.2-100.8L-2006.2-100.8z"/>
	<path id="XMLID_216_" class="st2" d="M-1992.2-134.4c-1.4,0.9-2.8,1.9-4.1,2.9v7.2c1.2-0.6,2.3-1.1,3.4-1.5
		c-1.1,1.9-2.2,3.8-3.4,5.9v24.2c1.6-4,3.6-8.5,5.7-13.3c1.6-3.6,3-6.5,4.1-8.9v-20C-1988.6-136.7-1990.6-135.5-1992.2-134.4z"/>
	<path id="XMLID_210_" class="st2" d="M-1996.4-119.8v24.2l0,0L-1996.4-119.8L-1996.4-119.8z"/>
	<path id="XMLID_209_" class="st2" d="M-1996.4-124.2v-7.2l0,0L-1996.4-124.2L-1996.4-124.2z"/>
	<path id="XMLID_208_" class="st3" d="M-1986.5-118c1-2.1,1.9-4.2,2.6-6.4c0.6-1.6,0.9-3.3,1-5.1c-0.1-3.2-1.2-6.2-3.1-8.7
		c-0.2,0.1-0.3,0.2-0.5,0.3L-1986.5-118L-1986.5-118z"/>
	<path id="XMLID_207_" class="st3" d="M-1986.5-117.9L-1986.5-117.9l0-20l0,0V-117.9z"/>
	<path id="XMLID_206_" class="st3" d="M-1978.8-119.7c0.1,3.1,0.8,6.1,2.1,8.9v-17.5C-1978-125.7-1978.7-122.7-1978.8-119.7z"/>
	<path id="XMLID_205_" class="st4" d="M-1970.1-137.5c-2.6,2.7-4.9,5.8-6.6,9.2v17.6c0.1,0.3,0.3,0.6,0.4,0.8c1.5,3.2,3.6,6,6,8.5
		c1,1,2.2,1.9,3.4,2.6v-41.9C-1967.9-139.7-1969-138.7-1970.1-137.5z"/>
	<path id="XMLID_204_" class="st4" d="M-1968.7-66.8c0,1.7,0.6,2.6,1.9,2.7v-8.5C-1968-69.9-1968.7-68-1968.7-66.8z"/>
	<path id="XMLID_203_" class="st4" d="M-1976.7-128.3v17.5l0,0L-1976.7-128.3L-1976.7-128.3z"/>
	<path id="XMLID_202_" class="st5" d="M-1964.3-98.1c2.6-0.1,5.1-0.8,7.3-2v-8.9c-1.8,0.8-3.8,1.3-5.8,1.5c-2.5,0-3.8-1.1-3.8-3.2
		c0-1.5,0.7-3.8,2-6.7c1.5-3.2,3.5-6,5.9-8.5c0.6-0.6,1.1-1.1,1.7-1.6v-21c-3.5,2.3-6.8,5-9.9,7.8v42
		C-1966-98.4-1965.2-98.1-1964.3-98.1z"/>
	<path id="XMLID_201_" class="st5" d="M-1959-79.8c-2.7-0.1-5.1,1.7-6.9,5.3c-0.3,0.7-0.6,1.3-0.9,1.9v8.5c0,0,0.1,0,0.1,0
		c2.2,0,4.8-1.3,7.7-3.9c0.7-0.6,1.3-1.2,2-1.9v-12.7C-1957.6-81.7-1958.3-80.8-1959-79.8z"/>
	<path id="XMLID_200_" class="st5" d="M-1966.8-140.8L-1966.8-140.8l0,42l0,0V-140.8z"/>
	<path id="XMLID_199_" class="st5" d="M-1966.8-72.6v8.5h0L-1966.8-72.6L-1966.8-72.6z"/>
	<path id="XMLID_198_" class="st6" d="M-1955.9-109.4c-0.3,0.1-0.7,0.3-1,0.4v8.9c0,0,0.1,0,0.1-0.1c3.3-1.7,6.4-3.7,9.4-5.9
		l0.3-0.3v-7.5C-1949.9-112.2-1952.9-110.7-1955.9-109.4z"/>
	<path id="XMLID_197_" class="st6" d="M-1947.1-135.1v-19.2c-0.9,0.4-1.8,0.9-2.7,1.4c-2.5,1.3-4.8,2.8-7.1,4.3v21
		C-1953.9-130.4-1950.6-132.9-1947.1-135.1z"/>
	<path id="XMLID_196_" class="st6" d="M-1956.9-82.7V-70c2.6-2.7,5-5.7,7.1-8.8c0.9-1.3,1.8-2.6,2.7-3.9V-97
		C-1949.8-93-1953-88.2-1956.9-82.7z"/>
	<path id="XMLID_195_" class="st6" d="M-1956.9-109L-1956.9-109l0,8.9l0,0V-109z"/>
	<path id="XMLID_194_" class="st6" d="M-1956.9-82.7V-70l0,0L-1956.9-82.7L-1956.9-82.7z"/>
	<path id="XMLID_193_" class="st6" d="M-1956.9-127.6v-21l0,0L-1956.9-127.6L-1956.9-127.6z"/>
	<path id="XMLID_192_" class="st7" d="M-1946.2-114.4c-0.3,0.2-0.6,0.4-0.9,0.6v7.5c2.8-2.1,6.1-4.6,9.8-7.6v-7.5l-0.3,0.3
		C-1940.1-118.6-1943-116.3-1946.2-114.4z"/>
	<path id="XMLID_191_" class="st7" d="M-1945.8-98.9c-0.4,0.6-0.8,1.2-1.2,1.9v14.3c2.4-3.5,4.9-7.4,7.6-11.7
		c0.7-1.1,1.4-2.3,2.3-3.6v-14.2C-1940.3-107.4-1943.2-103-1945.8-98.9z"/>
	<path id="XMLID_190_" class="st7" d="M-1946.9-135.2c3.1-1.9,6.4-3.7,9.7-5.2v-17.8c-3.4,1-6.7,2.3-9.8,3.9v19.2L-1946.9-135.2z"/>
	<path id="XMLID_189_" class="st7" d="M-1947.1-113.9v7.5l0,0L-1947.1-113.9L-1947.1-113.9z"/>
	<path id="XMLID_188_" class="st7" d="M-1947.1-97v14.3l0,0L-1947.1-97L-1947.1-97z"/>
	<path id="XMLID_187_" class="st7" d="M-1947.1-135.1v-19.2l0,0L-1947.1-135.1L-1947.1-135.1z"/>
	<path id="XMLID_150_" class="st8" d="M-1933.2-134.4c0,0.4,0.1,0.6,0.4,0.6c0.6,0,2.1-0.9,4.5-2.6c0.3-0.2,0.6-0.5,0.9-0.7v-4.5
		c-0.5,0.9-1.1,1.7-1.8,2.4C-1931.9-136.6-1933.2-135-1933.2-134.4z"/>
	<path id="XMLID_146_" class="st8" d="M-1934.9-141.5c3.8-1.6,6.1-2.4,7-2.4c0.2,0,0.3,0,0.5,0.1v-14.4c-1.4-0.7-2.9-1-4.4-1
		c-1.8,0-3.7,0.3-5.5,0.8v17.8C-1936.4-140.8-1935.6-141.2-1934.9-141.5z"/>
	<path id="XMLID_144_" class="st8" d="M-1937.2-121.5v7.5c0.7-0.6,1.5-1.2,2.2-1.8c-0.8,1.2-1.5,2.3-2.2,3.5v14.2
		c2.6-4.2,5.9-9.5,9.8-16.1v-16.5C-1929.3-129.1-1932.6-126.1-1937.2-121.5z"/>
	<path id="XMLID_143_" class="st8" d="M-1937.2-113.9L-1937.2-113.9l0-7.5l0,0V-113.9z"/>
	<path id="XMLID_142_" class="st8" d="M-1937.2-112.3v14.2l0,0L-1937.2-112.3L-1937.2-112.3z"/>
	<path id="XMLID_141_" class="st8" d="M-1937.2-140.4v-17.8h0L-1937.2-140.4L-1937.2-140.4z"/>
	<path id="XMLID_140_" class="st9" d="M-1922.2-122.7c2.8-4.5,4.2-6.9,4.2-7.3c0-0.9-0.4-1.7-1.1-2.2c-0.8-0.6-1.8-0.9-2.8-0.9
		c-1.9,0.2-3.8,0.9-5.3,2.2l-0.2,0.1v16.5C-1925.7-116.8-1924-119.7-1922.2-122.7z"/>
	<path id="XMLID_139_" class="st9" d="M-1927-142.9c0,0.4-0.1,0.9-0.3,1.2v4.5c2-1.5,3.8-3.2,5.6-5c2-2.1,3-3.9,3-5.4
		c-0.2-1.6-0.8-3-1.7-4.3c-1.3-2-2.9-3.7-4.7-5c-0.6-0.5-1.3-0.9-2.1-1.3v14.4C-1927.1-143.5-1927-143.2-1927-142.9z"/>
	<path id="XMLID_138_" class="st9" d="M-1927.4-114.2L-1927.4-114.2l0-16.5l0,0V-114.2z"/>
	<path id="XMLID_137_" class="st9" d="M-1927.4-143.7L-1927.4-143.7l0-14.4l0,0V-143.7z"/>
	<path id="XMLID_136_" class="st9" d="M-1927.4-141.7v4.5l0,0L-1927.4-141.7L-1927.4-141.7z"/>
</g>
</svg>
