<svg xmlns="http://www.w3.org/2000/svg" viewBox="2576.5 418.5 71.41 54.249">
  <defs>
    <style>
      .cls-1 {
        fill: none;
        stroke: #fdc50a;
        stroke-width: 2px;
      }
    </style>
  </defs>
  <path id="iconmonstr-password-12" class="cls-1" d="M36.813,38.905a11.037,11.037,0,0,1,4.9,1.848L35.552,25.1c-1.342-3.4,3.763-5.287,5.061-1.99L44.787,33.7a1,1,0,0,0,1.854-.729l-1.027-2.612a13.945,13.945,0,0,1,3.051.061,1.66,1.66,0,0,1,1.255,1.035l.844,2.14a1,1,0,0,0,1.854-.729l-.975-2.473a10.557,10.557,0,0,1,2.921.116,1.7,1.7,0,0,1,1.275,1.044l.717,1.816a1,1,0,0,0,1.854-.726L57.6,30.6a10.589,10.589,0,0,1,1.813.237c1.513.379,2.557,1.353,3.7,4.272,2.279,5.787.6,8.375,2.895,14.2L50.973,55.057C45,47.763,37.976,45.6,36.1,44.409c-3.711-2.371-2.212-5.5.717-5.5Zm-3.977-5.05-.761-1.935H5.784V8.784H63.626v17.5A12.96,12.96,0,0,1,68.5,32.849a25.447,25.447,0,0,1,.911,2.771V3H0V37.7H28.944A8.23,8.23,0,0,1,32.837,33.855Zm-12.592-13.5a2.892,2.892,0,1,0,2.892-2.892A2.891,2.891,0,0,0,20.244,20.352Zm-8.676,0A2.892,2.892,0,1,0,14.46,17.46,2.891,2.891,0,0,0,11.568,20.352Z" transform="translate(2577.5 416.5)"/>
</svg>
