<?xml version="1.0" encoding="utf-8"?>
<!-- Generator: Adobe Illustrator 19.0.0, SVG Export Plug-In . SVG Version: 6.00 Build 0)  -->
<svg version="1.1" id="Layer_1" xmlns="http://www.w3.org/2000/svg" xmlns:xlink="http://www.w3.org/1999/xlink" x="0px" y="0px"
	 viewBox="0 0 18 18" style="enable-background:new 0 0 18 18;" xml:space="preserve">
<style type="text/css">
	.st0{fill:#1C1C1C;}
	.st1{fill:none;}
</style>
<g id="Group_118" transform="translate(3222 -339)">
	<g id="Path_11">
		<polygon id="XMLID_4_" class="st0" points="-3213.1,352.2 -3218.4,346.9 -3217,345.6 -3213.1,349.5 -3209.3,345.6 -3207.9,347 		
			"/>
	</g>
	<g id="Ellipse_32" transform="translate(146 444.2)">
		<g>
			<ellipse id="XMLID_3_" class="st1" cx="-3359" cy="-96.2" rx="9" ry="9"/>
		</g>
		<g>
			<path class="st0" d="M-3359-87.2c-5,0-9-4-9-9s4-9,9-9c5,0,9,4,9,9S-3354-87.2-3359-87.2z M-3359-103.3c-3.9,0-7.1,3.2-7.1,7.1
				c0,3.9,3.2,7.1,7.1,7.1c3.9,0,7.1-3.2,7.1-7.1C-3351.9-100.1-3355.1-103.3-3359-103.3z"/>
		</g>
	</g>
</g>
</svg>
