<?xml version="1.0" encoding="utf-8"?>
<!-- Generator: Adobe Illustrator 19.0.0, SVG Export Plug-In . SVG Version: 6.00 Build 0)  -->
<svg version="1.1" id="Layer_1" xmlns="http://www.w3.org/2000/svg" xmlns:xlink="http://www.w3.org/1999/xlink" x="0px" y="0px"
	 viewBox="-226 393.9 142 55" style="enable-background:new -226 393.9 142 55;" xml:space="preserve">
<style type="text/css">
	.st0{fill:#8F3548;}
	.st1{fill:#E01C2F;}
	.st2{fill:#B34B87;}
	.st3{fill:#62A777;}
	.st4{fill:#63C7F2;}
	.st5{fill:#52BFD1;}
	.st6{fill:#FDC50A;}
	.st7{fill:#6A3A8C;}
	.st8{fill:#C22927;}
	.st9{fill:#0095C9;}
	.st10{fill:#8CBF32;}
</style>
<g id="Group_70" transform="translate(1761 -326.186)">
	<g id="_x35_3JD0v.tif_1_" transform="translate(0 0.001)">
		<g id="XMLID_221_">
			<path id="XMLID_223_" class="st0" d="M-1935.5,731.3c0.6-0.5,1.2-1,1.8-1.6c1-1.1,0.9-1.8-0.5-2.4c-1.3-0.5-2.7-0.8-4-1
				c-7.8-0.7-15.7,0-23.2,2.2c-2.5,0.7-4.8,1.9-6.7,3.6c-0.5,0.4-0.9,0.9-1.2,1.5c-0.8,0.9-0.7,2.3,0.3,3.1c0.3,0.2,0.6,0.4,0.9,0.4
				c1,0.4,2,0.6,3,0.7c1.6,0.1,3.3,0.1,4.9-0.1c1.7-0.1,2.5,0.9,1.8,2.5c-0.5,1.2-1.6,2.1-3,2.4c-2.5,0.6-5.1,1.1-7.6,1.6
				c-3.7,0.8-7.2,2.5-10.1,5c-0.7,0.6-1.2,1.3-1.7,2c-1.2,1.8-0.6,3.3,1.5,3.7c1.4,0.3,2.9,0.4,4.3,0.3c5.6-0.3,11-2,15.6-5.1
				c0.4-0.3,0.7-0.7,0.9-1.2c2.3-7,6.5-13.2,12.1-17.8c0.9-0.8,2-1.4,3.1-1.8c1.5-0.6,2.3,0,2.2,1.6c-0.2,2-0.9,4-1.9,5.7
				c-2.7,4.9-6.2,9.3-10.4,13c-0.1,0.1-0.2,0.1-0.2,0.2c-1.5,1.3-1.7,2.1-1,4c0.5,1.3,1.4,1.9,2.6,1.3c1.2-0.6,2.4-1.3,3.5-2.1
				c1-0.7,1.9-1.7,2.4-2.9c1.3-2.9,3.2-5.5,5.6-7.6c0.8-0.6,1.7-1.1,2.6-1.4c1.1-0.4,1.8,0.2,1.6,1.4c-0.1,0.8-0.4,1.5-0.8,2.1
				c-0.9,1.2-1.9,2.4-3,3.5c-1,1-2.1,1.9-3.1,3c-0.2,0.3-0.4,0.6-0.4,1c0.1,2.3,1.5,3.3,3.7,2.8c1.9-0.5,3.8-1.4,5.4-2.7
				c0.1-0.1,0.3-0.3,0.3-0.4c1.7-3.4,3.7-6.6,6-9.6c0.1-0.1,0.1-0.2,0.2-0.3c-1.2,0-2.3,0-3.4,0c-0.5,0-1-0.1-1.5-0.2
				c0.2-0.5,0.4-1,0.6-1.4c0.6-0.9,1.2-1.7,1.9-2.5c0.3-0.3,0.6-0.5,1-0.5c1.1-0.1,2.3-0.1,3.5,0c0.4,0,0.8-0.2,1.1-0.5
				c1.3-1.4,2.5-2.8,3.9-4.1c1.2-1.1,2.7-0.5,4.1-0.4l0.1,0.2l-4.4,4.8c1.2,0.1,2.2,0.2,3.2,0.3c0.3,0.1,0.6,0.2,0.8,0.3
				c-0.1,0.3-0.2,0.6-0.4,0.9c-0.7,0.8-1.6,1.6-2.3,2.5c-0.5,0.6-1.2,0.9-2,0.9c-0.9,0-1.8,0-2.7,0.1c-0.4,0-0.7,0.3-0.9,0.6
				c-1.2,2.1-2.5,4.3-3.5,6.5c-0.5,1.2-0.8,2.5-0.8,3.9c-0.1,1.1,0.6,1.7,1.8,1.6c0.9-0.1,1.7-0.3,2.6-0.6c1.2-0.5,2.3-1,3.4-1.6
				c0.3-0.2,0.5-0.5,0.6-0.8c0.9-2.6,2.2-5.1,3.8-7.3c1.7-2.3,4.2-3.9,7-4.5c1.2-0.2,2.4-0.3,3.3,0.7c0.9,1,0.6,2.2,0.2,3.3
				c-0.7,1.7-2,3-3.6,3.9c-2.1,1.4-4.2,2.7-6.3,3.9c-0.4,0.2-0.7,0.7-0.5,1.1c0,1.1,1,2.1,2.1,2c0.1,0,0.2,0,0.3,0
				c1.6-0.1,3.2-0.7,4.4-1.7c2-1.6,4-3.3,6-5c1.8-1.7,4-2.8,6.4-3.3c0.6-0.1,1.2-0.1,1.8-0.1c-0.1,0.3-0.2,0.5-0.3,0.6
				c-0.8,1.4-1.4,3-1.6,4.6c0,0.5-0.2,0.6-0.7,0.6c-4.4-0.1-7.9,1.9-11,4.8c-0.9,0.9-1.9,1.8-3,2.6c-0.9,0.6-2,1-3.1,1.2
				c-2.4,0.5-4.8-1.1-5.3-3.5c0,0,0-0.1,0-0.1c-0.1-0.3-0.1-0.7-0.2-1.1c-0.3,0.2-0.5,0.3-0.8,0.5c-1.9,1.1-3.8,2.3-5.8,3.3
				c-1.2,0.5-2.5,0.9-3.9,1c-1.6,0.2-2.3-0.4-2.7-1.9c-0.2-0.7-0.3-1.4-0.5-2.3c-0.2,0.2-0.5,0.4-0.7,0.6c-1.8,1.2-3.6,2.5-5.5,3.5
				c-1.8,1-3.4,0.4-4.3-1.4c-0.5-1-0.9-2.1-1.3-3.2c-0.7,0.7-1.5,1.3-2.3,1.9c-1.5,1-3,1.9-4.5,2.7c-0.6,0.3-1.3,0.4-1.9,0.4
				c-1.4,0.1-2.7-0.9-3-2.3c-0.2-0.8-0.3-1.6-0.5-2.5c-0.4,0.2-0.7,0.4-1,0.7c-3.6,2.7-7.7,4.5-12.1,5.4c-3.3,0.7-6.7,0.6-9.9-0.3
				c-4.2-1.4-5.7-5.1-3.8-9.1c1.2-2.3,3.1-4.3,5.4-5.5c3.9-2.3,8.2-3.9,12.7-4.8c0.4-0.1,0.8-0.3,1.2-0.5c-0.7,0-1.4-0.1-2.1-0.3
				c-1.3-0.3-2.5-0.8-3.7-1.5c-2.3-1.3-3.1-4.2-1.9-6.5c1-2,2.5-3.7,4.3-4.9c2.7-1.9,5.8-2.9,8.8-4c5-1.8,10.1-2.9,15.4-3.3
				c6.6-0.6,13.2,0.5,19.3,3.1c0.3,0.1,0.5,0.3,0.6,0.6c0.6,1.1,0.2,3.1-1,3.8c-2.6,1.3-5.3,2.5-7.9,3.8
				C-1935.1,731.5-1935.1,731.4-1935.5,731.3z M-1953.9,746.1l0.2,0.1c1.1-1.1,2.2-2.1,3.3-3.3c2.1-2.1,3.8-4.6,5.1-7.2
				c0.2-0.5,0.3-1,0.4-1.5c-0.9,0.1-1.8,0.5-2.4,1.2c-2.5,2.4-4.5,5.3-5.8,8.6C-1953.4,744.7-1953.6,745.4-1953.9,746.1z
				 M-1917,750.1c1.9-1.4,3.9-2.8,5.7-4.3c0.5-0.5,0.9-1.1,1.1-1.8c0.2-0.4,0.1-1-0.4-1.2c-0.2-0.1-0.5-0.1-0.7,0
				c-0.7,0.2-1.3,0.5-1.8,0.9C-1915.3,745.1-1916.7,747.5-1917,750.1z"/>
			<path id="XMLID_222_" class="st0" d="M-1931.5,735.4c0,1.6-1,3-2.4,3.6c-1,0.6-2.3,0.2-2.8-0.8c-0.2-0.4-0.3-0.9-0.2-1.4
				c0.1-1.6,1.2-3,2.7-3.5c1.1-0.4,2.2,0.1,2.6,1.2C-1931.5,734.8-1931.5,735.1-1931.5,735.4z"/>
		</g>
	</g>
	<g id="XMLID_135_" transform="translate(92.246 5.95)">
		<path id="XMLID_220_" class="st1" d="M-1984.9,754.2c-1.4,3.9-2,6.8-2,8.6c0,0.9,0.2,1.8,0.7,2.5c0.8,0.9,1.8,1.6,3,2.1
			c0.1,0,0.2,0.1,0.2,0.1v-18.1C-1983.7,751-1984.3,752.6-1984.9,754.2z"/>
		<path id="XMLID_219_" class="st2" d="M-1979.4,742.4c-1.1,2-2.1,4-3.1,5.9c-0.2,0.4-0.3,0.7-0.5,1.1v18.1c0.3,0.2,0.7,0.3,1.1,0.2
			c0.3,0,0.5-0.3,0.5-0.9c0-0.5-0.1-1-0.2-1.5c-0.1-0.4-0.2-0.7-0.2-1.1c0.3-2.3,0.8-4.5,1.7-6.6c0.6-1.6,1.3-3.5,2.2-5.6v-12.2
			C-1978.4,740.7-1978.9,741.5-1979.4,742.4z"/>
		<path id="XMLID_218_" class="st2" d="M-1978,737.6V734c-0.2,0.1-0.4,0.3-0.6,0.4c-0.9,0.7-1.7,1.3-2.4,1.9c-0.7,0.6-1.4,1.1-2,1.7
			v2.4C-1981.4,739.4-1979.7,738.5-1978,737.6z"/>
		<path id="XMLID_217_" class="st2" d="M-1983,749.4v18.1h0L-1983,749.4L-1983,749.4z"/>
		<path id="XMLID_216_" class="st3" d="M-1975.9,732.5c-0.7,0.5-1.4,1-2.1,1.5v3.6c0.6-0.3,1.2-0.5,1.7-0.8c-0.6,0.9-1.1,1.9-1.7,3
			V752c0.8-2,1.8-4.3,2.9-6.7c0.8-1.8,1.5-3.3,2.1-4.5v-10.1C-1974,731.4-1975,732-1975.9,732.5z"/>
		<path id="XMLID_210_" class="st3" d="M-1978,739.9v12.2l0,0L-1978,739.9L-1978,739.9z"/>
		<path id="XMLID_209_" class="st3" d="M-1978,737.6V734l0,0L-1978,737.6L-1978,737.6z"/>
		<path id="XMLID_208_" class="st4" d="M-1972.9,740.8c0.5-1,0.9-2.1,1.3-3.2c0.9-2.3,0.5-5-1.1-6.9c-0.1,0-0.2,0.1-0.3,0.1
			L-1972.9,740.8L-1972.9,740.8z"/>
		<path id="XMLID_207_" class="st4" d="M-1973,740.9L-1973,740.9l0-10.1h0V740.9z"/>
		<path id="XMLID_206_" class="st4" d="M-1969,739.9c0,1.6,0.4,3.1,1.1,4.5v-8.8C-1968.6,736.9-1969,738.4-1969,739.9z"/>
		<path id="XMLID_205_" class="st5" d="M-1964.6,730.9c-1.3,1.4-2.5,2.9-3.3,4.6v8.9c0.1,0.1,0.1,0.3,0.2,0.4c0.8,1.6,1.8,3,3.1,4.3
			c0.5,0.5,1.1,1,1.7,1.3v-21.1C-1963.5,729.8-1964.1,730.4-1964.6,730.9z"/>
		<path id="XMLID_204_" class="st5" d="M-1963.9,766.6c0,0.9,0.3,1.3,0.9,1.4v-4.3C-1963.5,764.6-1963.8,765.6-1963.9,766.6z"/>
		<path id="XMLID_203_" class="st5" d="M-1968,735.6v8.8l0,0L-1968,735.6L-1968,735.6z"/>
		<path id="XMLID_202_" class="st6" d="M-1961.7,750.8c1.3-0.1,2.6-0.4,3.7-1v-4.5c-0.9,0.4-1.9,0.7-3,0.7c-1.3,0-1.9-0.5-1.9-1.6
			c0.1-1.2,0.5-2.3,1-3.4c0.7-1.6,1.8-3,3-4.3c0.3-0.3,0.6-0.6,0.9-0.8v-10.6c-1.8,1.2-3.4,2.5-5,4v21.1
			C-1962.6,750.7-1962.1,750.8-1961.7,750.8z"/>
		<path id="XMLID_201_" class="st6" d="M-1959,760c-1.4,0-2.6,0.8-3.5,2.7c-0.2,0.3-0.3,0.6-0.5,0.9v4.3c0,0,0,0,0.1,0
			c1.1,0,2.4-0.7,3.9-2c0.3-0.3,0.7-0.6,1-1v-6.4C-1958.3,759.1-1958.6,759.5-1959,760z"/>
		<path id="XMLID_200_" class="st6" d="M-1962.9,729.3L-1962.9,729.3l0,21.1h0V729.3z"/>
		<path id="XMLID_199_" class="st6" d="M-1963,763.7v4.3h0L-1963,763.7L-1963,763.7z"/>
		<path id="XMLID_198_" class="st7" d="M-1957.4,745.1c-0.2,0.1-0.3,0.1-0.5,0.2v4.5l0.1,0c1.7-0.9,3.3-1.9,4.8-3l0.2-0.1v-3.8
			C-1954.4,743.7-1955.9,744.5-1957.4,745.1z"/>
		<path id="XMLID_197_" class="st7" d="M-1952.9,732.2v-9.7c-0.5,0.2-0.9,0.5-1.4,0.7c-1.3,0.7-2.5,1.4-3.6,2.2v10.6
			C-1956.4,734.5-1954.7,733.3-1952.9,732.2z"/>
		<path id="XMLID_196_" class="st7" d="M-1957.9,758.6v6.4c1.3-1.4,2.5-2.9,3.6-4.4c0.4-0.6,0.9-1.3,1.4-2v-7.2
			C-1954.3,753.4-1956,755.8-1957.9,758.6z"/>
		<path id="XMLID_195_" class="st7" d="M-1957.9,745.3L-1957.9,745.3l0,4.5h0V745.3z"/>
		<path id="XMLID_194_" class="st7" d="M-1957.9,758.6v6.4l0,0L-1957.9,758.6L-1957.9,758.6z"/>
		<path id="XMLID_193_" class="st7" d="M-1957.9,735.9v-10.6h0L-1957.9,735.9L-1957.9,735.9z"/>
		<path id="XMLID_192_" class="st8" d="M-1952.5,742.6c-0.2,0.1-0.3,0.2-0.5,0.3v3.8c1.4-1.1,3.1-2.3,5-3.8v-3.8l-0.2,0.2
			C-1949.4,740.5-1950.9,741.6-1952.5,742.6z"/>
		<path id="XMLID_191_" class="st8" d="M-1952.3,750.4c-0.2,0.3-0.4,0.6-0.6,0.9v7.2c1.2-1.8,2.5-3.8,3.9-5.9
			c0.3-0.6,0.7-1.2,1.2-1.8v-7.1C-1949.5,746.1-1951,748.4-1952.3,750.4z"/>
		<path id="XMLID_190_" class="st8" d="M-1952.9,732.1c1.6-1,3.2-1.9,4.9-2.6v-9c-1.7,0.5-3.4,1.2-5,2L-1952.9,732.1L-1952.9,732.1z
			"/>
		<path id="XMLID_189_" class="st8" d="M-1952.9,742.9v3.8l0,0L-1952.9,742.9L-1952.9,742.9z"/>
		<path id="XMLID_188_" class="st8" d="M-1952.9,751.4v7.2l0,0L-1952.9,751.4L-1952.9,751.4z"/>
		<path id="XMLID_187_" class="st8" d="M-1952.9,732.2v-9.7h0L-1952.9,732.2L-1952.9,732.2z"/>
		<path id="XMLID_150_" class="st9" d="M-1945.9,732.5c0,0.2,0.1,0.3,0.2,0.3c0.8-0.3,1.6-0.7,2.3-1.3c0.2-0.1,0.3-0.2,0.5-0.4v-2.3
			c-0.2,0.4-0.6,0.9-0.9,1.2C-1945.2,731.4-1945.9,732.2-1945.9,732.5z"/>
		<path id="XMLID_146_" class="st9" d="M-1946.7,729c1.1-0.5,2.3-0.9,3.6-1.2c0.1,0,0.2,0,0.2,0.1v-7.2c-0.7-0.3-1.5-0.5-2.2-0.5
			c-0.9,0-1.9,0.2-2.8,0.4v9C-1947.5,729.3-1947.1,729.1-1946.7,729z"/>
		<path id="XMLID_144_" class="st9" d="M-1947.9,739v3.8c0.4-0.3,0.7-0.6,1.1-0.9c-0.4,0.6-0.8,1.2-1.1,1.8v7.1c1.3-2.1,3-4.8,5-8.1
			v-8.3C-1943.9,735.2-1945.6,736.7-1947.9,739z"/>
		<path id="XMLID_143_" class="st9" d="M-1947.9,742.8L-1947.9,742.8l0-3.8l0,0V742.8z"/>
		<path id="XMLID_142_" class="st9" d="M-1947.9,743.7v7.1l0,0L-1947.9,743.7L-1947.9,743.7z"/>
		<path id="XMLID_141_" class="st9" d="M-1947.9,729.5v-9h0L-1947.9,729.5L-1947.9,729.5z"/>
		<path id="XMLID_140_" class="st10" d="M-1940.3,738.4c0.8-1.2,1.5-2.4,2.1-3.7c0-0.4-0.2-0.9-0.6-1.1c-0.4-0.3-0.9-0.5-1.4-0.4
			c-1,0.1-1.9,0.5-2.7,1.1l-0.1,0.1v8.3C-1942.1,741.4-1941.2,740-1940.3,738.4z"/>
		<path id="XMLID_139_" class="st10" d="M-1942.7,728.2c0,0.2-0.1,0.4-0.2,0.6v2.3c1-0.8,2-1.6,2.8-2.5c0.8-0.7,1.3-1.6,1.5-2.7
			c-0.1-0.8-0.4-1.5-0.9-2.2c-0.6-1-1.5-1.9-2.4-2.5c-0.3-0.2-0.7-0.5-1-0.6v7.2C-1942.8,727.9-1942.7,728.1-1942.7,728.2z"/>
		<path id="XMLID_138_" class="st10" d="M-1942.9,742.7L-1942.9,742.7l0-8.3l0,0V742.7z"/>
		<path id="XMLID_137_" class="st10" d="M-1942.9,727.8L-1942.9,727.8l0-7.2h0V727.8z"/>
		<path id="XMLID_136_" class="st10" d="M-1942.9,728.9v2.3l0,0L-1942.9,728.9L-1942.9,728.9z"/>
	</g>
	<g id="XMLID_94_" transform="translate(1.564 45.274)">
		<path id="XMLID_133_" class="st0" d="M-1980.3,721c-0.1,0-0.2,0-0.3,0.1c-0.1,0-0.2,0.1-0.3,0.1c-0.1,0.1-0.2,0.1-0.3,0.2
			c-0.1,0.1-0.2,0.2-0.3,0.3c-0.3,0.4-0.5,0.7-0.7,1.1c-0.2,0.4-0.5,0.8-0.8,1.4c-0.1,0.2-0.2,0.3-0.2,0.5c0,0.2-0.1,0.4-0.1,0.6
			v1.3c0,0.1,0,0.2,0.1,0.3c0.1,0.1,0.1,0.2,0.2,0.2c0.1,0,0.2,0.1,0.4,0.1c0.1,0,0.3,0.1,0.4,0.1v0.3h-3.3v-0.3c0.1,0,0.2,0,0.4,0
			c0.1,0,0.3,0,0.4-0.1c0.1,0,0.2-0.1,0.2-0.2c0-0.1,0.1-0.2,0.1-0.3v-1.7c0-0.1-0.1-0.2-0.1-0.3c-0.1-0.1-0.1-0.3-0.2-0.5
			c-0.2-0.4-0.4-0.8-0.7-1.2s-0.4-0.8-0.6-1.1c-0.1-0.1-0.2-0.3-0.3-0.4c-0.1-0.1-0.2-0.2-0.3-0.2c-0.1-0.1-0.2-0.1-0.3-0.1
			c-0.1,0-0.2,0-0.3,0v-0.3h3v0.3c-0.2,0-0.5,0-0.7,0.1c-0.1,0-0.2,0.1-0.2,0.2c0,0,0,0.1,0,0.1c0,0,0,0.1,0.1,0.2
			c0,0.1,0.1,0.2,0.2,0.3c0.1,0.1,0.1,0.2,0.2,0.3c0.2,0.3,0.3,0.6,0.5,0.9l0.6,1.1c0.5-0.8,0.9-1.5,1.2-1.9
			c0.2-0.3,0.3-0.5,0.4-0.8c0-0.1,0-0.1-0.1-0.2c-0.1-0.1-0.1-0.1-0.2-0.1c-0.1,0-0.2,0-0.3-0.1c-0.1,0-0.2,0-0.3,0v-0.3h2.4V721
			L-1980.3,721z"/>
		<path id="XMLID_130_" class="st0" d="M-1975.5,725.1c0,0.3-0.1,0.7-0.2,1c-0.1,0.3-0.3,0.6-0.5,0.8c-0.2,0.3-0.5,0.5-0.8,0.6
			c-0.3,0.1-0.7,0.2-1,0.2c-0.3,0-0.6-0.1-0.9-0.2c-0.3-0.1-0.5-0.3-0.7-0.5c-0.2-0.2-0.4-0.5-0.5-0.8c-0.1-0.3-0.2-0.7-0.2-1.1
			c0-0.7,0.2-1.3,0.7-1.8c0.9-0.9,2.5-1,3.4,0C-1975.8,723.8-1975.5,724.5-1975.5,725.1z M-1976.6,725.2c0-0.3,0-0.5-0.1-0.8
			c0-0.2-0.1-0.5-0.2-0.7c-0.1-0.2-0.2-0.4-0.4-0.5c-0.2-0.1-0.4-0.2-0.6-0.2c-0.2,0-0.5,0.1-0.6,0.2c-0.2,0.1-0.3,0.3-0.4,0.5
			c-0.1,0.2-0.2,0.4-0.2,0.7c0,0.2-0.1,0.5-0.1,0.7c0,0.3,0,0.6,0.1,0.9c0,0.2,0.1,0.5,0.2,0.7c0.1,0.2,0.2,0.4,0.4,0.5
			c0.2,0.1,0.4,0.2,0.6,0.2c0.4,0,0.8-0.2,1-0.6C-1976.7,726.3-1976.5,725.7-1976.6,725.2L-1976.6,725.2z"/>
		<path id="XMLID_128_" class="st0" d="M-1969.7,727.5l-1.6,0.1l-0.1-0.1v-0.6h0c-0.1,0.1-0.2,0.2-0.3,0.3c-0.1,0.1-0.2,0.2-0.3,0.3
			c-0.1,0.1-0.3,0.1-0.4,0.2c-0.2,0.1-0.4,0.1-0.6,0.1c-0.4,0-0.7-0.1-1-0.4c-0.2-0.4-0.4-0.8-0.3-1.2v-2.3c0-0.1,0-0.2-0.1-0.3
			c-0.1-0.2-0.2-0.3-0.4-0.3c-0.1,0-0.2,0-0.3,0v-0.3l1.6-0.1l0.1,0.1v3.3c0,0.3,0.1,0.6,0.2,0.8c0.1,0.2,0.3,0.3,0.6,0.3
			c0.2,0,0.3,0,0.5-0.1c0.1,0,0.2-0.1,0.4-0.2c0.1-0.1,0.2-0.1,0.2-0.2c0.1-0.1,0.1-0.1,0.2-0.2v-2.7c0-0.1,0-0.2-0.1-0.3
			c0-0.1-0.1-0.2-0.2-0.2c-0.1,0-0.2-0.1-0.3-0.1c-0.1,0-0.2,0-0.4,0v-0.3l1.8-0.1l0.1,0.1v3.8c0,0.1,0,0.2,0.1,0.3
			c0,0.1,0.1,0.1,0.2,0.2c0.1,0,0.1,0.1,0.2,0.1c0.1,0,0.2,0,0.3,0L-1969.7,727.5L-1969.7,727.5z"/>
		<path id="XMLID_126_" class="st0" d="M-1965.4,723.4c0,0.2,0,0.3-0.1,0.4c-0.1,0.1-0.2,0.2-0.4,0.2c-0.2,0-0.3,0-0.4-0.1
			c-0.1-0.1-0.1-0.2-0.1-0.3c0-0.1,0-0.1,0-0.2c0-0.1,0-0.1,0-0.2c-0.2,0-0.4,0.1-0.5,0.2c-0.2,0.1-0.4,0.3-0.5,0.5v2.8
			c0,0.1,0,0.2,0.1,0.3c0,0.1,0.1,0.1,0.2,0.2c0.1,0,0.2,0.1,0.3,0.1c0.1,0,0.2,0,0.3,0v0.3h-2.5v-0.3l0.2,0c0.1,0,0.1,0,0.2,0
			c0.1,0,0.2-0.1,0.2-0.2c0-0.1,0.1-0.2,0.1-0.3v-3c0-0.1,0-0.2-0.1-0.3c0-0.1-0.1-0.2-0.2-0.2c-0.1,0-0.1-0.1-0.2-0.1
			c-0.1,0-0.2,0-0.3,0v-0.3l1.6-0.1l0.1,0.1v0.7h0c0.2-0.2,0.4-0.4,0.7-0.6c0.2-0.1,0.4-0.2,0.7-0.2c0.2,0,0.4,0.1,0.5,0.2
			C-1965.4,723-1965.4,723.2-1965.4,723.4z"/>
		<path id="XMLID_123_" class="st0" d="M-1955.7,727.6h-1.9c-0.4-0.6-0.8-1.2-1.1-1.7c-0.3-0.5-0.7-1-1.1-1.5h-0.7v2.2
			c0,0.1,0,0.2,0.1,0.3c0,0.1,0.1,0.2,0.2,0.2c0.1,0,0.2,0.1,0.3,0.1c0.1,0,0.3,0,0.4,0v0.3h-2.9v-0.3c0.1,0,0.2,0,0.3,0
			c0.1,0,0.2,0,0.3-0.1c0.1,0,0.2-0.1,0.2-0.2c0-0.1,0.1-0.2,0.1-0.3v-5c0-0.1,0-0.2,0-0.3c0-0.1-0.1-0.2-0.2-0.2
			c-0.1,0-0.2-0.1-0.3-0.1c-0.1,0-0.2,0-0.3,0v-0.3h3.2c0.3,0,0.6,0,0.8,0.1c0.2,0.1,0.5,0.2,0.7,0.3c0.2,0.1,0.4,0.3,0.5,0.5
			c0.1,0.2,0.2,0.5,0.2,0.8c0,0.2,0,0.5-0.1,0.7c-0.1,0.2-0.2,0.4-0.4,0.5c-0.2,0.1-0.3,0.3-0.5,0.4c-0.2,0.1-0.4,0.2-0.7,0.3
			c0.3,0.5,0.6,0.8,0.9,1.1s0.5,0.7,0.8,1.1c0.1,0.2,0.2,0.3,0.4,0.4c0.1,0.1,0.2,0.2,0.3,0.2c0.1,0,0.2,0.1,0.3,0.1
			c0.1,0,0.2,0,0.3,0L-1955.7,727.6L-1955.7,727.6z M-1958.2,722.4c0.1-0.7-0.5-1.3-1.2-1.4c-0.1,0-0.2,0-0.2,0h-0.8v3h0.6
			c0.8,0,1.5-0.6,1.6-1.4C-1958.2,722.5-1958.2,722.5-1958.2,722.4L-1958.2,722.4z"/>
		<path id="XMLID_120_" class="st0" d="M-1953.2,727.6h-2.3v-0.3l0.2,0c0.1,0,0.1,0,0.2,0c0.1,0,0.2-0.1,0.2-0.2
			c0-0.1,0.1-0.2,0.1-0.3v-3c0-0.1,0-0.2-0.1-0.3c0-0.1-0.1-0.2-0.2-0.2c-0.1,0-0.2-0.1-0.3-0.1c-0.1,0-0.2,0-0.3-0.1v-0.3l1.7-0.1
			l0.1,0.1v3.9c0,0.1,0,0.2,0.1,0.3c0,0.1,0.1,0.1,0.2,0.2c0.1,0,0.1,0.1,0.2,0.1c0.1,0,0.2,0,0.2,0L-1953.2,727.6L-1953.2,727.6z
			 M-1953.8,720.8c0,0.2-0.1,0.4-0.2,0.5c-0.1,0.1-0.3,0.2-0.5,0.2c-0.2,0-0.3-0.1-0.4-0.2c-0.1-0.1-0.2-0.3-0.2-0.5
			c0-0.2,0.1-0.3,0.2-0.5c0.1-0.1,0.3-0.2,0.4-0.2c0.2,0,0.3,0.1,0.5,0.2C-1953.9,720.5-1953.8,720.7-1953.8,720.8z"/>
		<path id="XMLID_116_" class="st0" d="M-1948.4,727.1c0.1,0.1,0.2,0.3,0.3,0.4c0.1,0.2,0.1,0.4,0.1,0.6c0,0.5-0.2,0.9-0.6,1.2
			c-0.2,0.2-0.5,0.3-0.8,0.4c-0.4,0.1-0.7,0.1-1.1,0.1c-0.6,0-1.1-0.1-1.6-0.3c-0.3-0.2-0.6-0.5-0.5-0.9c0-0.3,0.1-0.6,0.4-0.8
			c0.3-0.2,0.6-0.3,1-0.3v-0.1c-0.1,0-0.2-0.1-0.3-0.1c-0.1,0-0.2-0.1-0.3-0.2c-0.1-0.1-0.2-0.1-0.2-0.2c-0.1-0.1-0.1-0.2-0.1-0.3
			c0-0.2,0.1-0.3,0.2-0.5c0.2-0.2,0.3-0.3,0.6-0.4v-0.1c-0.3-0.1-0.5-0.3-0.7-0.6c-0.2-0.2-0.3-0.5-0.3-0.8c0-0.4,0.2-0.8,0.5-1.1
			c0.4-0.3,0.8-0.5,1.3-0.4c0.1,0,0.3,0,0.4,0c0.1,0,0.3,0.1,0.4,0.1h1.7v0.5h-1.1v0c0.1,0.1,0.2,0.3,0.3,0.5
			c0.1,0.2,0.1,0.3,0.1,0.5c0,0.4-0.2,0.8-0.5,1.1c-0.3,0.3-0.8,0.4-1.2,0.4h-0.6c-0.1,0-0.2,0.1-0.2,0.1c-0.1,0.1-0.1,0.2-0.1,0.3
			c0,0.1,0,0.2,0.1,0.3c0.1,0.1,0.2,0.1,0.3,0.1c0.1,0,0.2,0,0.3,0c0.1,0,0.3,0,0.4,0c0.1,0,0.3,0,0.6,0c0.2,0,0.4,0,0.5,0
			c0.2,0,0.3,0,0.5,0.1C-1948.7,726.9-1948.6,727-1948.4,727.1z M-1948.8,728.3c0-0.2,0-0.3-0.1-0.4c-0.1-0.1-0.2-0.2-0.4-0.2
			c-0.1,0-0.3,0-0.6,0c-0.3,0-0.6,0-1,0c-0.3,0-0.5,0.2-0.8,0.3c-0.2,0.2-0.2,0.4-0.2,0.6c0,0.1,0,0.2,0.1,0.3
			c0.1,0.1,0.1,0.2,0.3,0.3c0.1,0.1,0.3,0.2,0.5,0.2c0.2,0.1,0.5,0.1,0.7,0.1c0.4,0,0.8-0.1,1.1-0.3
			C-1949,728.9-1948.8,728.6-1948.8,728.3z M-1949.8,724.2c0-0.3-0.1-0.6-0.2-0.9c-0.1-0.2-0.4-0.3-0.7-0.3c-0.1,0-0.3,0-0.4,0.1
			c-0.1,0.1-0.2,0.2-0.3,0.3c-0.1,0.1-0.1,0.3-0.1,0.4c0,0.2,0,0.3,0,0.5c0,0.3,0.1,0.6,0.2,0.9c0.1,0.2,0.4,0.3,0.6,0.3
			c0.3,0,0.5-0.1,0.6-0.3C-1949.8,724.9-1949.8,724.6-1949.8,724.2L-1949.8,724.2z"/>
		<path id="XMLID_114_" class="st0" d="M-1942.2,727.6h-2.4v-0.3l0.3,0c0.1,0,0.2,0,0.2,0c0.1,0,0.2-0.1,0.2-0.2
			c0-0.1,0.1-0.2,0.1-0.3v-2.5c0-0.3-0.1-0.6-0.2-0.8c-0.1-0.2-0.4-0.3-0.6-0.3c-0.2,0-0.3,0-0.5,0.1c-0.1,0.1-0.3,0.1-0.4,0.2
			c-0.1,0.1-0.2,0.2-0.3,0.2c-0.1,0.1-0.1,0.1-0.1,0.2v2.8c0,0.1,0,0.2,0.1,0.3c0,0.1,0.1,0.1,0.2,0.2c0.1,0,0.1,0.1,0.2,0.1
			c0.1,0,0.2,0,0.3,0v0.3h-2.4v-0.3l0.2,0c0.1,0,0.1,0,0.2,0c0.1,0,0.2-0.1,0.2-0.2c0-0.1,0.1-0.2,0.1-0.3v-5.6c0-0.1,0-0.2-0.1-0.3
			c0-0.1-0.1-0.2-0.2-0.2c-0.1-0.1-0.2-0.1-0.3-0.1c-0.1,0-0.3,0-0.4,0v-0.3l1.8-0.1l0.1,0.1v3.4h0c0.1-0.1,0.2-0.2,0.3-0.3
			c0.1-0.1,0.2-0.2,0.3-0.3c0.1-0.1,0.3-0.2,0.4-0.2c0.2-0.1,0.4-0.1,0.6-0.1c0.4,0,0.7,0.1,1,0.4c0.3,0.3,0.4,0.8,0.3,1.2v2.5
			c0,0.1,0,0.2,0.1,0.3c0,0.1,0.1,0.1,0.2,0.2c0.1,0,0.1,0,0.2,0.1c0.1,0,0.2,0,0.2,0L-1942.2,727.6L-1942.2,727.6z"/>
		<path id="XMLID_112_" class="st0" d="M-1938.7,727.4c-0.2,0.1-0.4,0.2-0.6,0.2c-0.2,0.1-0.5,0.1-0.7,0.1c-0.3,0-0.6-0.1-0.9-0.3
			c-0.2-0.3-0.3-0.6-0.2-0.9v-3.3h-0.9v-0.5h0.9v-1.5h0.9v1.5h1.4v0.5h-1.4v2.7c0,0.2,0,0.3,0,0.5c0,0.1,0,0.2,0.1,0.4
			c0.1,0.1,0.1,0.2,0.2,0.2c0.1,0.1,0.3,0.1,0.4,0.1c0.1,0,0.2,0,0.4,0c0.1,0,0.2,0,0.3-0.1L-1938.7,727.4z"/>
		<path id="XMLID_109_" class="st0" d="M-1930.3,722.4c0,0.3-0.1,0.7-0.2,1c-0.1,0.3-0.3,0.5-0.6,0.7c-0.2,0.2-0.5,0.3-0.8,0.4
			c-0.3,0.1-0.6,0.1-0.9,0.1h-0.8v2.1c0,0.1,0,0.2,0.1,0.3c0,0.1,0.1,0.2,0.2,0.2c0.1,0,0.2,0.1,0.3,0.1c0.1,0,0.3,0,0.4,0v0.3h-3
			v-0.3c0.1,0,0.2,0,0.3,0c0.1,0,0.2,0,0.3-0.1c0.1,0,0.2-0.1,0.2-0.2c0-0.1,0.1-0.2,0.1-0.3v-5c0-0.1,0-0.2,0-0.3
			c0-0.1-0.1-0.2-0.2-0.2c-0.1,0-0.2-0.1-0.4-0.1c-0.1,0-0.2,0-0.3,0v-0.3h3.2c0.6,0,1.1,0.1,1.6,0.5
			C-1930.5,721.4-1930.3,721.9-1930.3,722.4z M-1931.8,723.6c0.1-0.1,0.2-0.3,0.2-0.5c0-0.1,0.1-0.3,0.1-0.5c0-0.2,0-0.4-0.1-0.6
			c0-0.2-0.1-0.4-0.2-0.5c-0.1-0.2-0.3-0.3-0.5-0.4c-0.2-0.1-0.5-0.1-0.7-0.1h-0.7v3.1h0.5c0.3,0,0.6,0,0.9-0.2
			C-1932.1,723.9-1931.9,723.7-1931.8,723.6z"/>
		<path id="XMLID_106_" class="st0" d="M-1925.3,726.5c-0.2,0.4-0.5,0.7-0.8,0.9c-0.3,0.2-0.8,0.3-1.2,0.3c-0.4,0-0.7-0.1-1-0.2
			c-0.3-0.1-0.5-0.3-0.7-0.6c-0.2-0.2-0.3-0.5-0.4-0.8c-0.1-0.3-0.1-0.7-0.1-1c0-0.3,0.1-0.6,0.1-0.9c0.1-0.3,0.2-0.6,0.4-0.8
			c0.2-0.2,0.4-0.4,0.7-0.6c0.3-0.1,0.6-0.2,0.9-0.2c0.3,0,0.6,0,0.9,0.2c0.2,0.1,0.4,0.3,0.6,0.5c0.2,0.2,0.3,0.4,0.3,0.6
			c0.1,0.3,0.1,0.5,0.1,0.8v0.3h-3.2c0,0.3,0,0.6,0.1,0.9c0.1,0.2,0.2,0.5,0.3,0.7c0.1,0.2,0.3,0.3,0.5,0.4c0.2,0.1,0.5,0.2,0.7,0.2
			c0.3,0,0.5-0.1,0.8-0.2c0.3-0.2,0.5-0.4,0.6-0.7L-1925.3,726.5z M-1926.4,724.6c0-0.2,0-0.4,0-0.6c0-0.2-0.1-0.4-0.1-0.5
			c-0.1-0.1-0.2-0.3-0.3-0.4c-0.1-0.1-0.3-0.1-0.5-0.1c-0.3,0-0.7,0.2-0.9,0.4c-0.2,0.3-0.4,0.8-0.4,1.2L-1926.4,724.6
			L-1926.4,724.6z"/>
		<path id="XMLID_103_" class="st0" d="M-1920.1,725.1c0,0.3-0.1,0.7-0.2,1c-0.1,0.3-0.3,0.6-0.5,0.8c-0.2,0.3-0.5,0.5-0.8,0.6
			c-0.3,0.1-0.7,0.2-1,0.2c-0.3,0-0.6-0.1-0.9-0.2c-0.3-0.1-0.5-0.3-0.7-0.5c-0.2-0.2-0.4-0.5-0.5-0.8c-0.1-0.3-0.2-0.7-0.2-1.1
			c0-0.7,0.2-1.3,0.7-1.8c0.9-0.9,2.5-1,3.4,0C-1920.3,723.8-1920,724.5-1920.1,725.1z M-1921.1,725.2c0-0.3,0-0.5-0.1-0.8
			c0-0.2-0.1-0.5-0.2-0.7c-0.1-0.2-0.2-0.4-0.4-0.5c-0.2-0.1-0.4-0.2-0.6-0.2c-0.2,0-0.5,0.1-0.6,0.2c-0.2,0.1-0.3,0.3-0.4,0.5
			c-0.1,0.2-0.2,0.4-0.2,0.7c0,0.2-0.1,0.5-0.1,0.7c0,0.3,0,0.6,0.1,0.9c0,0.2,0.1,0.5,0.2,0.7c0.1,0.2,0.2,0.4,0.4,0.5
			c0.2,0.1,0.4,0.2,0.6,0.2c0.4,0,0.8-0.2,1-0.6C-1921.2,726.3-1921.1,725.7-1921.1,725.2L-1921.1,725.2z"/>
		<path id="XMLID_100_" class="st0" d="M-1915,723.4c0.2,0.2,0.3,0.5,0.4,0.8c0.1,0.3,0.2,0.7,0.2,1c0,0.4-0.1,0.7-0.2,1
			c-0.1,0.3-0.3,0.6-0.5,0.8c-0.2,0.2-0.5,0.4-0.7,0.5c-0.3,0.1-0.6,0.2-0.9,0.2c-0.2,0-0.5,0-0.7-0.1c-0.2-0.1-0.3-0.1-0.5-0.2h0
			v1.5c0,0.1,0,0.2,0.1,0.3c0,0.1,0.1,0.1,0.2,0.2c0.1,0,0.2,0.1,0.3,0.1c0.1,0,0.2,0,0.4,0v0.3h-2.7v-0.3c0.1,0,0.2,0,0.3,0
			c0.1,0,0.2,0,0.3,0c0.1,0,0.2-0.1,0.2-0.2c0-0.1,0.1-0.2,0.1-0.3v-5.1c0-0.1,0-0.2-0.1-0.3c0-0.1-0.1-0.2-0.2-0.2
			c-0.1,0-0.2-0.1-0.2-0.1c-0.1,0-0.2,0-0.3,0v-0.3l1.6-0.1l0.1,0.1v0.5l0,0c0.2-0.2,0.4-0.4,0.6-0.5c0.2-0.1,0.5-0.2,0.7-0.2
			c0.3,0,0.6,0.1,0.8,0.2C-1915.4,723-1915.1,723.1-1915,723.4z M-1915.8,726.8c0.1-0.2,0.2-0.5,0.3-0.7c0.1-0.3,0.1-0.6,0.1-0.9
			c0-0.2,0-0.5-0.1-0.7c0-0.2-0.1-0.5-0.2-0.7c-0.1-0.2-0.3-0.3-0.4-0.5c-0.4-0.2-0.9-0.2-1.3,0c-0.2,0.1-0.3,0.2-0.4,0.4v2.9
			c0,0.1,0.1,0.2,0.1,0.3c0.1,0.1,0.1,0.2,0.2,0.2c0.1,0.1,0.2,0.1,0.3,0.2c0.1,0.1,0.3,0.1,0.4,0.1c0.2,0,0.4-0.1,0.5-0.1
			C-1916,727.1-1915.9,727-1915.8,726.8L-1915.8,726.8z"/>
		<path id="XMLID_98_" class="st0" d="M-1911.4,727.6h-2.4v-0.3l0.2,0c0.1,0,0.1,0,0.2,0c0.1,0,0.2-0.1,0.2-0.2
			c0-0.1,0.1-0.2,0.1-0.3v-5.6c0-0.1,0-0.2-0.1-0.3c0-0.1-0.1-0.2-0.2-0.2c-0.1-0.1-0.2-0.1-0.3-0.1c-0.1,0-0.3,0-0.4-0.1v-0.3
			l1.8-0.1l0.1,0.1v6.6c0,0.1,0,0.2,0.1,0.3c0,0.1,0.1,0.1,0.2,0.2c0.1,0,0.1,0.1,0.2,0.1c0.1,0,0.2,0,0.2,0L-1911.4,727.6
			L-1911.4,727.6z"/>
		<path id="XMLID_95_" class="st0" d="M-1906.5,726.5c-0.2,0.4-0.5,0.7-0.8,0.9c-0.3,0.2-0.8,0.3-1.2,0.3c-0.4,0-0.7-0.1-1-0.2
			c-0.3-0.1-0.5-0.3-0.7-0.6c-0.2-0.2-0.3-0.5-0.4-0.8c-0.1-0.3-0.1-0.7-0.1-1c0-0.3,0.1-0.6,0.1-0.9c0.1-0.3,0.2-0.6,0.4-0.8
			c0.2-0.2,0.4-0.4,0.7-0.6c0.3-0.1,0.6-0.2,0.9-0.2c0.3,0,0.6,0,0.9,0.2c0.2,0.1,0.4,0.3,0.6,0.5c0.2,0.2,0.3,0.4,0.3,0.6
			c0.1,0.3,0.1,0.5,0.1,0.8v0.3h-3.2c0,0.3,0,0.6,0.1,0.9c0.1,0.2,0.2,0.5,0.3,0.7c0.1,0.2,0.3,0.3,0.5,0.4c0.2,0.1,0.5,0.2,0.7,0.2
			c0.3,0,0.5-0.1,0.8-0.2c0.3-0.2,0.5-0.4,0.6-0.7L-1906.5,726.5z M-1907.6,724.6c0-0.2,0-0.4,0-0.6c0-0.2-0.1-0.4-0.1-0.5
			c-0.1-0.1-0.2-0.3-0.3-0.4c-0.1-0.1-0.3-0.1-0.5-0.1c-0.3,0-0.7,0.2-0.9,0.4c-0.2,0.3-0.4,0.8-0.4,1.2L-1907.6,724.6
			L-1907.6,724.6z"/>
	</g>
	<g id="XMLID_42_" transform="translate(126.541 47.887)">
		<path id="XMLID_92_" class="st0" d="M-1981.3,725h-2.4v-0.3l0.2,0c0.1,0,0.1,0,0.2,0c0.1,0,0.2-0.1,0.2-0.2
			c0.1-0.1,0.1-0.2,0.1-0.3v-3.6h-1.3c0,0.7,0,1.4-0.2,2.1c-0.1,0.5-0.2,1-0.4,1.4c-0.1,0.3-0.3,0.6-0.6,0.8
			c-0.2,0.2-0.4,0.3-0.7,0.3c-0.2,0-0.4-0.1-0.5-0.2c-0.1-0.1-0.2-0.3-0.2-0.4c0-0.1,0-0.2,0.1-0.3c0.1-0.1,0.2-0.2,0.3-0.2
			c0.1,0,0.3,0,0.4,0.1c0.1,0.1,0.2,0.2,0.3,0.3c0.1-0.1,0.2-0.3,0.3-0.4c0.1-0.2,0.2-0.5,0.3-0.7c0.1-0.3,0.2-0.6,0.2-1
			c0.1-0.4,0.1-0.8,0.1-1.1c0-0.1,0-0.3-0.1-0.4c0-0.1-0.1-0.2-0.2-0.2c-0.1,0-0.2-0.1-0.3-0.1c-0.1,0-0.3,0-0.3-0.1v-0.3h4.4v0.3
			c-0.1,0-0.2,0-0.2,0c-0.1,0-0.1,0-0.2,0c-0.1,0-0.2,0.1-0.2,0.2c0,0.1-0.1,0.2-0.1,0.3v3.1c0,0.1,0,0.2,0.1,0.3
			c0,0.1,0.1,0.1,0.2,0.2c0.1,0,0.1,0.1,0.2,0.1c0.1,0,0.2,0,0.2,0L-1981.3,725z"/>
		<path id="XMLID_89_" class="st0" d="M-1976.4,723.9c-0.2,0.4-0.5,0.7-0.8,0.9c-0.3,0.2-0.8,0.3-1.2,0.3c-0.4,0-0.7-0.1-1-0.2
			c-0.3-0.1-0.5-0.3-0.7-0.6c-0.2-0.2-0.3-0.5-0.4-0.8c-0.1-0.3-0.1-0.7-0.1-1c0-0.3,0.1-0.6,0.1-0.9c0.1-0.3,0.2-0.6,0.4-0.8
			c0.2-0.2,0.4-0.4,0.7-0.6c0.3-0.1,0.6-0.2,0.9-0.2c0.3,0,0.6,0,0.9,0.2c0.2,0.1,0.4,0.3,0.6,0.5c0.2,0.2,0.3,0.4,0.3,0.6
			c0.1,0.3,0.1,0.5,0.1,0.8v0.3h-3.2c0,0.3,0,0.6,0.1,0.9c0.1,0.2,0.2,0.5,0.3,0.7c0.1,0.2,0.3,0.3,0.5,0.4c0.2,0.1,0.5,0.2,0.7,0.2
			c0.3,0,0.5-0.1,0.8-0.2c0.3-0.2,0.5-0.4,0.6-0.7L-1976.4,723.9z M-1977.4,722c0-0.2,0-0.4,0-0.6c0-0.2-0.1-0.4-0.1-0.5
			c-0.1-0.1-0.2-0.3-0.3-0.4c-0.1-0.1-0.3-0.1-0.5-0.1c-0.3,0-0.7,0.2-0.9,0.4c-0.2,0.3-0.4,0.8-0.4,1.2L-1977.4,722L-1977.4,722z"
			/>
		<path id="XMLID_43_" class="st0" d="M-1971.5,721.7h-0.3c0-0.1-0.1-0.2-0.1-0.3c-0.1-0.1-0.1-0.2-0.2-0.4
			c-0.1-0.1-0.1-0.2-0.2-0.3c-0.1-0.1-0.2-0.1-0.3-0.2c-0.1,0-0.2,0-0.3,0c-0.1,0-0.2,0-0.3,0v3.6c0,0.1,0,0.2,0.1,0.3
			c0,0.1,0.1,0.1,0.2,0.2c0.1,0,0.2,0.1,0.2,0.1c0.1,0,0.2,0,0.3,0v0.3h-2.5v-0.3l0.3,0c0.1,0,0.2,0,0.2,0c0.1,0,0.2-0.1,0.2-0.2
			c0-0.1,0.1-0.2,0.1-0.3v-3.6l-0.4,0c-0.1,0-0.2,0-0.3,0c-0.1,0-0.2,0.1-0.3,0.2c-0.1,0.1-0.2,0.2-0.3,0.3
			c-0.1,0.1-0.1,0.2-0.2,0.4c-0.1,0.1-0.1,0.2-0.1,0.3h-0.3v-1.5h4.5L-1971.5,721.7L-1971.5,721.7z"/>
	</g>
	<g id="XMLID_31_" transform="translate(84.032 33.017)">
		<g id="XMLID_37_" transform="translate(1.358 1.059)">
			<g id="XMLID_38_">
				<path id="XMLID_39_" class="st0" d="M-1986.9,722.7V720h1.2c0.2,0,0.4,0,0.5,0.1c0.1,0,0.2,0.1,0.3,0.3c0.1,0.1,0.1,0.3,0.1,0.4
					c0,0.2-0.1,0.3-0.2,0.5c-0.2,0.1-0.4,0.2-0.6,0.2c0.1,0,0.1,0.1,0.2,0.1c0.1,0.1,0.2,0.2,0.3,0.4l0.5,0.7h-0.4l-0.4-0.6
					c-0.1-0.2-0.2-0.3-0.3-0.4c0-0.1-0.1-0.1-0.2-0.2c0,0-0.1-0.1-0.2-0.1c-0.1,0-0.1,0-0.2,0h-0.4v1.2L-1986.9,722.7L-1986.9,722.7
					z M-1986.6,721.2h0.8c0.1,0,0.3,0,0.4,0c0.1,0,0.2-0.1,0.2-0.2c0-0.1,0.1-0.2,0.1-0.2c0-0.1,0-0.2-0.1-0.3
					c-0.1-0.1-0.3-0.1-0.4-0.1h-0.8V721.2L-1986.6,721.2z"/>
			</g>
		</g>
		<g id="XMLID_32_">
			<path id="XMLID_33_" class="st0" d="M-1984.5,724.8c-1.3,0-2.4-1.1-2.4-2.4c0-1.3,1.1-2.4,2.4-2.4s2.4,1.1,2.4,2.4l0,0
				C-1982.1,723.8-1983.2,724.8-1984.5,724.8z M-1984.5,720.3c-1.2,0-2.1,1-2.1,2.1c0,1.2,1,2.1,2.1,2.1s2.1-1,2.1-2.1
				C-1982.4,721.3-1983.4,720.3-1984.5,720.3z"/>
		</g>
	</g>
</g>
</svg>
