<?xml version="1.0" encoding="utf-8"?>
<!-- Generator: Adobe Illustrator 19.0.0, SVG Export Plug-In . SVG Version: 6.00 Build 0)  -->
<svg version="1.1" id="Layer_1" xmlns="http://www.w3.org/2000/svg" xmlns:xlink="http://www.w3.org/1999/xlink" x="0px" y="0px"
	 viewBox="-275 400.6 69 44" style="enable-background:new -275 400.6 69 44;" xml:space="preserve">
<style type="text/css">
	.st0{fill:#FFFFFF;}
</style>
<path id="iconmonstr-id-card-14" class="st0" d="M-249.3,434.4v0.8h-18.3v-0.8c0-2.1,0.1-3.3,2.4-3.8c2.6-0.6,5.1-1.1,3.9-3.4
	c-3.6-6.8-1-10.6,2.8-10.6c3.8,0,6.5,3.7,2.9,10.6c-1.2,2.3,1.3,2.8,3.9,3.4C-249.4,431.1-249.3,432.3-249.3,434.4z M-238.3,416.5
	h-7.3v3.7h7.3L-238.3,416.5z M-238.3,424h-7.3v3.7h7.3L-238.3,424z M-238.3,431.4h-7.3v3.7h7.3L-238.3,431.4z M-245.7,409.1v3.7h11
	v26.1h-36.7v-26.1h11v-3.7H-275v33.5h44v-33.5H-245.7z M-256.7,401.6v11.2h7.3v-11.2H-256.7z M-253,409.1c-1,0-1.8-0.8-1.8-1.9
	c0-1,0.8-1.9,1.8-1.9c1,0,1.8,0.8,1.8,1.9c0,0,0,0,0,0C-251.2,408.2-252,409.1-253,409.1L-253,409.1z"/>
</svg>
