<?xml version="1.0" encoding="utf-8"?>
<!-- Generator: Adobe Illustrator 19.0.0, SVG Export Plug-In . SVG Version: 6.00 Build 0)  -->
<svg version="1.1" id="Layer_1" xmlns="http://www.w3.org/2000/svg" xmlns:xlink="http://www.w3.org/1999/xlink" x="0px" y="0px"
	 viewBox="-275 400.6 69 44" style="enable-background:new -275 400.6 69 44;" xml:space="preserve">
<style type="text/css">
	.st0{fill:#FFFFFF;}
</style>
<path id="iconmonstr-id-card-22" class="st0" d="M-229.2,413.2v25.2h-33.3v-25.2H-229.2z M-225,409h-41.7v33.6h41.7V409z
	 M-241.7,433.5v0.7h-16.7v-0.7c0-1.9,0.1-2.9,2.2-3.4c2.3-0.5,4.6-1,3.5-3.1c-3.3-6.1-0.9-9.6,2.6-9.6c3.5,0,5.9,3.3,2.6,9.6
	c-1.1,2,1.1,2.5,3.5,3.1C-241.7,430.6-241.7,431.6-241.7,433.5L-241.7,433.5z M-233.3,417.4h-6.3v4.2h6.2L-233.3,417.4z
	 M-233.3,423.7h-6.3v4.2h6.2L-233.3,423.7z M-233.3,430h-6.3v4.2h6.2L-233.3,430z M-229.2,404.8h-41.7v33.6h2.1v-31.5h39.6V404.8z
	 M-233.3,400.6H-275v33.6h2.1v-31.5h39.6V400.6z"/>
</svg>
