<?xml version="1.0" encoding="utf-8"?>
<!-- Generator: Adobe Illustrator 19.0.0, SVG Export Plug-In . SVG Version: 6.00 Build 0)  -->
<svg version="1.1" id="Layer_1" xmlns="http://www.w3.org/2000/svg" xmlns:xlink="http://www.w3.org/1999/xlink" x="0px" y="0px"
	 viewBox="-275 400.6 69 44" style="enable-background:new -275 400.6 69 44;" xml:space="preserve">
<style type="text/css">
	.st0{fill:#FFFFFF;stroke:#FFFFFF;stroke-width:0.5;}
</style>
<path id="iconmonstr-user-30" class="st0" d="M-224,439.5h-2.8c0-4.4,0.2-5-2.5-5.6c-4.1-0.9-7.9-1.8-9.3-4.9
	c-0.7-1.8-0.6-3.8,0.4-5.4c2.9-5.5,3.6-10.2,2-12.9c-1.9-3.2-7.7-3.2-9.6,0c-1.6,2.7-0.9,7.4,2,12.8c1,1.6,1.2,3.6,0.5,5.4
	c-1.4,3.1-5.2,4-9.2,4.9c-2.8,0.6-2.6,1.2-2.6,5.7h-2.8l0-1.8c0-3.6,0.3-5.6,4.5-6.6c4.8-1.1,9.5-2.1,7.2-6.3
	c-6.7-12.4-1.9-19.4,5.3-19.4c7.1,0,12,6.8,5.3,19.4c-2.2,4.1,2.3,5.1,7.2,6.3c4.2,1,4.5,3,4.5,6.6L-224,439.5z M-210.4,433.3
	c-3.7-0.8-7.1-1.6-5.4-4.7c5-9.5,1.3-14.5-4-14.5c-3.6,0-6.4,2.3-6.4,6.6c0,3.6,1.6,6.2,2.6,8.3h3c-0.5-2.1-4.2-7.3-2.2-10.6
	c1.2-2,4.8-2,6,0c1.1,1.8,0.5,5.1-1.5,9c-0.9,1.4-1,3.1-0.3,4.7c0.9,1.9,2.8,2.8,4.9,3.4c4.3,1.2,3.9,0.1,3.9,4.2h2.8l0-1.3
	C-207,435.5-207.2,434-210.4,433.3z M-275,439.5h2.8c0-4.1-0.4-2.9,3.9-4.2c2.2-0.6,4.1-1.5,4.9-3.4c0.7-1.5,0.5-3.3-0.3-4.7
	c-2-3.8-2.6-7.2-1.5-9c1.2-1.9,4.8-1.9,6,0c2,3.3-1.7,8.5-2.2,10.6h3c0.9-2.1,2.6-4.7,2.6-8.3c0-4.3-2.8-6.6-6.4-6.6
	c-5.3,0-9,5.1-4,14.5c1.6,3.1-1.8,3.9-5.4,4.7c-3.2,0.7-3.4,2.3-3.4,5C-275,438.2-275,439.5-275,439.5z"/>
</svg>
