<svg xmlns="http://www.w3.org/2000/svg" viewBox="2086.662 416.019 58.518 63.232">
  <defs>
    <style>
      .cls-1 {
        fill: none;
        stroke: #c13442;
        stroke-width: 2px;
      }
    </style>
  </defs>
  <path id="iconmonstr-award-18" class="cls-1" d="M53.349,29.258,48.625,32.17l1.713,5.222-5.452,1.147-.2,5.484-5.517-.758-2.094,5.085-4.928-2.57-3.729,4.076-3.732-4.073-4.928,2.57-2.094-5.085-5.517.758-.2-5.484L6.5,37.392,8.217,32.17,3.493,29.258l3.425-4.33L3.493,20.6l4.724-2.912L6.5,12.464l5.452-1.147.2-5.484,5.517.758,2.094-5.085,4.928,2.57L28.421,0l3.732,4.073L37.081,1.5l2.094,5.085,5.517-.758.2,5.484,5.449,1.149-1.713,5.222L53.349,20.6l-3.425,4.33,3.425,4.33Zm-7.478-4.33a17.45,17.45,0,1,0-17.45,17.45A17.45,17.45,0,0,0,45.871,24.928ZM41.237,50.544l5.985,9.283,2.857-4.986h5.763L49.224,44.614a28.691,28.691,0,0,1-7.987,5.93ZM7.618,44.614,1,54.842H6.763L9.62,59.828l5.985-9.283A28.691,28.691,0,0,1,7.618,44.614Z" transform="translate(2087.5 417.5)"/>
</svg>
