<?xml version="1.0" encoding="utf-8"?>
<!-- Generator: Adobe Illustrator 19.0.0, SVG Export Plug-In . SVG Version: 6.00 Build 0)  -->
<svg version="1.1" id="Layer_1" xmlns="http://www.w3.org/2000/svg" xmlns:xlink="http://www.w3.org/1999/xlink" x="0px" y="0px"
	 viewBox="0 0 58 58" style="enable-background:new 0 0 58 58;" xml:space="preserve">
<style type="text/css">
	.st0{fill:#52BFD1;}
</style>
<g>
	<path id="XMLID_60_" class="st0" d="M27.8,2c-0.1,0.1-0.1,0.1-0.2,0.2c-0.6,0.5-1.4,1-2,1.2c0-0.2,0-0.4-0.1-0.7
		c0-0.2-0.1-0.4-0.2-0.5C26.1,2.1,27,2.1,27.8,2 M41.2,4.9c2.5,1.3,4.9,3,6.9,5c2.7,2.7,4.7,5.8,6.1,9.3c-0.3-0.1-0.6-0.1-0.9-0.1
		c-0.7,0-1.4,0.3-2.2,0.6c-0.2,0.1-0.5,0.2-0.7,0.3c-0.3-0.2-0.7-0.3-1.2-0.3c-0.2,0-0.4,0-0.6,0.1c-0.6-0.5-1.2-1.1-2.2-1.1
		c-0.3,0-0.5,0-0.7,0.1c-0.9,0.3-1.4,1.1-1.5,2c-0.1,1.9,2.4,4.2,3.1,4.5c0.3,0.1,0.6,0.2,0.9,0.2c0,0,0,0,0.1,0
		c-0.3,0.4-0.7,0.8-1.3,1.4c-0.3-0.5-0.6-1.1-1.2-1.5c0-0.1-0.1-0.2-0.2-0.4c-0.2-0.6-0.6-1.4-1.5-1.9c-0.3-0.3-0.9-0.9-1.1-1.3
		c0-0.1-0.1-0.2-0.1-0.3c0.4-1.2,0.2-2.4,0.2-2.5c0-0.3-0.1-0.6-0.2-0.8c0.5-0.4,1-0.9,1.1-1.6c0.2-0.9-0.2-2.1-1.6-2.7
		c0-0.2-0.1-0.5-0.1-0.7c-0.3-0.8-1.1-1.3-1.9-1.3c-0.1,0-0.2,0-0.3,0c-0.5,0.1-1,0.3-1.4,0.6c-0.1,0-0.3,0-0.5,0
		c-0.5,0-1.4,0.2-2.2,1.1c-0.5,0.6-0.6,1.2-0.7,1.6c-0.1-0.1-0.2-0.2-0.4-0.3L35,14.8c-0.9-0.6-1.5-0.9-2-1.2c0,0,0.1,0,0.1,0
		c0,0,0.1,0,0.1,0c0.7-0.1,1.9-0.2,2.5-1.3c0.1-0.2,0.2-0.5,0.3-0.7c0.2-0.2,0.3-0.4,0.4-0.6c0,0,0,0,0,0c0.7-0.3,1.2-1.1,1.2-1.9
		c0.3-0.2,0.6-0.4,0.9-0.7c0.1-0.1,0.4-0.6,0.7-1.1C39.8,7,41,6.5,41.1,5.2C41.2,5.1,41.2,5,41.2,4.9 M14.3,6.3
		c-0.1,0.2-0.2,0.3-0.3,0.5c-0.1,0-0.3,0-0.4-0.1C13.9,6.6,14.1,6.5,14.3,6.3 M29,21c0.2,0.8,0.8,1.5,1.7,1.6c0,0,0.1,0,0.1,0
		c0.2,0.1,0.6,0.3,0.8,0.5c0.8,0.5,1.8,1.1,2.9,1.1c0.4,0,0.8-0.1,1.1-0.2c0.4-0.2,0.7-0.5,1-0.7c0.8,0.2,1.6,0.3,2.2,0.3
		c0.3,0.6,0.8,1.2,1.2,1.7c0.1,0.2,0.3,0.4,0.4,0.5c0.2,0.3,0.4,0.7,0.6,1.2c0.4,0.9,0.8,1.8,1.6,2.6c0.1,0.1,0.2,0.2,0.3,0.3
		c1.6,1.7,2.5,2.4,3.4,2.6c-0.6,1.1-1.5,2.4-2.5,4c-0.5,0.7-0.7,1.1-0.9,1.4c-0.6,1.1-0.3,2.5-0.1,3.7c0.1,0.3,0.1,0.7,0.2,1
		c-0.1,0.1-0.3,0.2-0.5,0.4c-0.2,0.1-0.3,0.2-0.5,0.4c-1,0.7-1.3,1.7-1.5,2.3c0,0.1,0,0.1-0.1,0.2c-0.7,0.5-1.2,1.2-1.7,1.8
		c-0.3,0.4-1,1.3-1.3,1.3c-0.4,0-0.8,0.1-1.3,0.2c-0.2,0-0.4,0.1-0.6,0.1c-0.1-0.2-0.2-0.4-0.3-0.6c-0.1-0.1-0.2-0.3-0.2-0.4
		c0-0.1,0-0.1,0-0.2c0-0.5-0.1-1.3-0.6-2c-0.2-0.2-0.3-0.4-0.6-0.7c-0.1-0.1-0.2-0.2-0.3-0.3c0.7-0.5,1.2-1.5,0.7-3.3
		c0-0.1,0-0.1,0-0.2c-0.2-1.2-0.8-2.4-1.9-3.3c0.1-0.2,0.1-0.5,0.2-0.8c0-0.1,0-0.3,0-0.4c0-1.7-1.2-3.1-2.8-3.1c0,0-0.1,0-0.1,0
		c-0.4-0.5-1.1-1.1-2.2-1.1c-0.1,0-0.1,0-0.2,0c-0.9,0.1-1.5,0.4-2,0.6c-0.2,0.1-0.4,0.2-0.5,0.2c-0.2,0-0.5-0.1-0.8-0.2
		c-0.3-0.1-0.7-0.2-1.1-0.2c-0.8-0.1-1.4-0.5-1.9-1.2c-0.7-1.1-0.9-2.7-0.4-4c0-0.1,0-0.1,0.1-0.2c0.1-0.6,0-1.2-0.1-1.6
		c0,0,0,0,0-0.1c0.3-0.5,0.8-1.1,1.2-1.6c0,0,0,0,0,0c0.3-0.1,0.8-0.2,1.3-0.5c0.9-0.5,1.3-1.3,1.5-1.8c0.1-0.1,0.2-0.3,0.2-0.4
		c0.4-0.3,1.2-0.4,2.1-0.5c0.3,0,0.6-0.1,0.8-0.1c0.1,0,0.4-0.1,0.6-0.1C28.3,21.1,28.7,21,29,21 M2.1,26.5c0.1,0,0.1,0.1,0.2,0.1
		c0,0.1,0,0.3,0,0.4c0,0.5,0.1,0.9,0.2,1.2c0.3,1.2,1,2,1.5,2.7c0.2,0.3,0.5,0.6,0.7,0.9c0.3,0.4,0.6,1.4,0.6,1.7
		c-0.2,0.9,0.3,1.8,1.2,2.2c0.2,0.1,0.3,0.1,0.5,0.1c0.6,0.5,1.7,1.6,2.1,2c0.5,0.6,0.6,0.9,0.7,1.1c0,0-0.1,0.1-0.2,0.1
		c-1.4,1-0.9,2.7-0.7,3.7c0,0,0,0,0,0.1c0,0,0,0,0,0c-0.8,0.5-1.3,1.3-1.5,2.2C3.9,40.5,2,34.9,2,29C2,28.2,2,27.3,2.1,26.5 M29,0
		C13,0,0,13,0,29s13,29,29,29c16,0,29-13,29-29C58,13,45,0,29,0L29,0z M24.8,5.7c1.4,0,3.3-1.2,4.1-1.9c0.5-0.4,0.9-1.1,1.5-1.1
		c2.9,0,7.2,1.2,8.2,1.8c1.5,0.9-0.6,0.8-0.9,1.4c-0.2,0.5-0.6,1.1-0.8,1.3c-0.1,0.2-0.3,0.2-0.5,0.2c-0.3,0-0.6-0.2-0.5-0.5
		C36.1,6.4,37,6.2,35.6,6c-0.9-0.1-1.4-0.5-1.9-0.5c-0.4,0-0.7,0.1-1.3,0.6c-0.4,0.4-0.7,0.9-1,1.4C31,8.2,30,8.2,29.7,8.8
		c-0.3,0.5,0,1.3,0.6,1.3c0.1,0,0.2,0,0.4-0.1c0,0,0,0,0,0c0.2,0,1.3,1,1.8,1c0.2,0,0.4-0.2,0.3-0.7c-0.2-1.2,0.6-1.9,0.6-2.8
		c0-0.2,0.1-0.3,0.3-0.3c0.2,0,0.5,0.2,0.4,0.4c-0.3,0.4-0.6,1.7,0.2,1.8c0,0,0,0,0,0c0.3,0,0.8-0.4,1.2-0.4c0.1,0,0.2,0.1,0.3,0.2
		c0-0.1-0.1-0.1-0.1-0.1c-0.3,0-1,1.2-1,1.2c0,0,0,0,0,0c-0.3,0.2-0.7-0.1-0.5,0.7c0.2,0.7-1.3,0.6-1.6,0.8c0,0,0,0,0,0
		c-0.2,0-0.8-0.2-1.1-0.2c-0.1,0-0.2,0-0.2,0.1c-0.4-0.3,0.1-1.2-0.2-1.3c-0.3,0.5-0.2,1.6-0.9,1.6c-0.6,0-1.5,0.7-1.9,1.2
		c-0.3,0.3-1.9,1-2.1,1c0,0,0,0,0,0c0.9,0.1,0.9,0.8,0.8,1.4c-0.1,0.5-0.5,0.7-1.1,0.7c-0.6,0-1.3-0.2-1.7-0.2c-0.2,0-0.2,0-0.2,0.1
		c0.1,0.5-0.3,1.9-0.4,2.3c-0.1,0.4,1.3,0.6,1.2,0.8c0,0,1.9-0.6,2-0.8l0.4-0.9c0.3-0.2,0.7-0.4,1.1-0.6c0.1-0.3,0.3-0.6,0.5-0.8
		c0.1-0.1,1.7-0.3,2.1-0.3c0,0,0.1,0,0.1,0c0.5,0.2,1.4,1.1,1.7,1.5c0.1,0.2,0.7,0.4,0.7,0.6c0.2,0.3-0.2,0.5,0,0.7
		c0,0.1,0.1,0.1,0.1,0.1c0.2,0,0.3-1.1,0.2-1.1c0,0,0,0,0,0c0-0.2,0-0.2,0.1-0.2c0.1,0,0.4,0.4,0.5,0.4c0,0,0,0,0,0L32,15.7
		c-0.2-0.3-0.1-0.4,0-0.4c0.4,0,1.8,1,2,1.1c0.3,0.2,0.8,1.6,1.5,1.6c0.1,0,0.2,0,0.2-0.1c0.5-0.2,0-0.4,0.3-0.7
		c0.2-0.1,0.4-0.2,0.5-0.2c0.2,0,0.3,0,0.4,0c0.2,0,0.3,0,0.5-0.1c-1.1,0.8,0.6,1.8,0.6,1.8c0,0,0,0,0,0c0.1,0,0.2,0.1,0.3,0.1
		c0.3,0,0.5-0.2,0.7-0.2c0,0,0.1,0,0.1,0c0.1,0,0.2,0,0.5,0c0.6,0,1.5-0.1,1.3-0.3c0.5,0.2,0.3,2.4-0.1,2.7
		c-0.3,0.2-0.9,0.3-1.7,0.3c-1.1,0-2.4-0.2-2.8-0.5c-0.2-0.2-0.4-0.2-0.5-0.2c-0.6,0-0.5,1.2-1,1.3c-0.1,0-0.2,0.1-0.4,0.1
		c-1,0-2.4-1.5-3.5-1.6c0,0,0,0,0,0c0,0,0,0,0,0c0,0,0,0,0,0c0.5,0,0-1.4,0-1.5c-0.1-0.2-0.5-0.2-0.9-0.2c-1,0-2.5,0.3-3,0.4
		c-1.4,0.2-2.8,0.2-3.9,1c-0.7,0.6-0.8,1.6-1.5,2.1c-0.5,0.3-1,0.2-1.4,0.6c-0.7,0.7-1.6,1.7-2,2.7c-0.2,0.4,0.2,1.3,0.1,1.8
		c-1,3.1,0.2,7.3,4,7.8c0.7,0.1,1.4,0.4,2.2,0.4c0.2,0,0.4,0,0.6-0.1c0.7-0.2,1.4-0.7,2.1-0.8c0,0,0,0,0.1,0c0.9,0,0.7,1.2,1.6,1.2
		c0.1,0,0.3,0,0.5-0.1c0.1,0,0.2,0,0.3,0c0.5,0,0.8,0.6,0.8,1.1c-0.2,1.1-0.8,1.8,0.3,2.5c0.7,0.5,1.3,1.3,1.4,2.2
		c0.1,0.5,0.6,1.4,0,1.7c-0.4,0.2-0.7,1.5-0.7,1.9c0.1,0.5,1.1,1.4,1.3,1.8c0.4,0.6,0.1,1.3,0.5,1.9c0.4,0.7,0.7,1.2,0.9,1.9
		c0.1,0.3,0.4,0.4,0.9,0.4c0.9,0,2.1-0.4,2.5-0.4c0,0,0,0,0,0c0,0,0,0,0,0c1.9,0,2.9-2.7,4.3-3.6c0.8-0.5,0.6-1.8,1.5-2.4
		c0.9-0.6,1.8-1,1.8-2.1c0.1-1-0.7-3.1-0.3-3.9c0.5-1,6.2-9.1,4.5-9.5c0,0,0,0,0,0c-0.3,0-1.9,1.1-2.4,1.1c0,0,0,0,0,0
		c-0.5,0-2.3-1.9-2.7-2.4c-0.9-0.9-1.3-2.4-2-3.5c-0.4-0.6-1.7-1.9-1.7-2.6c0.1,0.1,0.5,0.9,0.8,0.9c0,0,0.1,0,0.1,0l0-0.4
		c0,0.2,1.5,2,1.8,2.1c0.7,0.4,0.7,1.6,1.5,2.2c1.1,0.8,1.1,2.8,2,2.8c0.3,0,0.6-0.2,1-0.6c1.4-1.2,4-3.6,3.3-5.7
		c-0.1-0.4-0.5-0.6-0.8-0.6c-0.6,0-1.4,0.4-1.8,0.7c-0.6-0.3-2.6-2.5-1.8-2.8c0,0,0,0,0.1,0c0.4,0,1.2,1.1,1.5,1.2
		c0.1,0.1,0.2,0.1,0.3,0.1c0.4,0,0.7-0.3,0.9-0.3c0.1,0,0.2,0.1,0.3,0.2c0.1,0.2,0.3,0.3,0.5,0.3c0.9,0,2.6-0.9,3.3-0.9
		c0.1,0,0.1,0,0.2,0c0.4,0.2,0.8,0.5,0.9,1c0.5,1.5,0.9,4.2,0.9,6.9c0,14.6-11.8,26.4-26.4,26.4c-7.5,0-14.3-3.1-19.1-8.2
		c-0.6-0.6-1-2-0.1-2.6l1-0.2c0.7-0.6-0.7-3.2-0.1-3.6c1.8-1.3,0.9-2.8-0.2-4.1c-0.4-0.5-2.6-2.8-3.2-2.8c-0.1,0-0.1,0-0.1,0.1
		c0.2-0.7-0.5-2.4-0.9-3.1c-0.7-1.1-1.6-1.9-2-3.1c-0.1-0.5-0.1-2-0.4-2.4c-0.1-0.1-1-0.5-1-0.7c0.9-5.2,3.3-10,6.8-13.7l2.4-1
		c0.6-0.9,1-1.2,1.3-1.2c0.3,0,0.6,0.2,1,0.2c0.2,0,0.3,0,0.6-0.1c0.4,0,1-1.8,1.4-2.1c0.8-0.5,0.2-0.5,0-0.8
		c-0.3-0.5,5.8-2.8,6.9-2.8c0.1,0,0.2,0,0.2,0.1c0.1,0.4-3.5,2.3-3.2,2.3c0,0,0,0,0,0c0,0,0,0,0,0c0,0,0,0,0,0
		c-0.9,0.1-1.1,1.8-0.9,1.8c0,0,0,0,0,0c0.4,0,2.9-1.8,4.3-1.8c0.2,0,0.3,0,0.4,0.1C24.4,5.7,24.6,5.7,24.8,5.7L24.8,5.7z
		 M38.9,15.1c0.3,0,1-1.3,1.5-1.3c0,0,0,0,0,0c0.2,0-0.3,0.4-0.3,0.4c0.1,0.7,0.6,1,1.5,1.4c1,0.4,0.3,1-0.3,1c-0.1,0-0.1,0-0.2,0
		c-0.2-0.1-1-0.3-1.6-0.3c-0.4,0-0.6,0.1-0.7,0.4c0,0.1-0.2,0.2-0.4,0.2c-0.5,0-1.3-0.3-1.1-0.6c0.2-0.3,0.1-1,0.5-1.5
		c0.2-0.3,0.4-0.4,0.6-0.4c0.2,0,0.4,0.2,0.4,0.5C38.7,15,38.8,15.1,38.9,15.1L38.9,15.1z M27,9.6c-0.4,0-0.7,1.2-0.7,1.2l0.3-0.1
		c0.2,0.1-0.2,0.3-0.1,0.4c0.2,0.4,0.1,0.7,0,0.9c0,0.2-0.3,0.1-0.4,0.2c-0.1,0.2,0.7,0.2,0.7,0.2c0,0.1-0.4,0.1-0.6,0.2
		c0.1,0.1,0.1,0.2,0.1,0.2c0,0,0,0-0.1,0c0,0,0,0-0.1,0c0,0,0,0,0,0c0,0,0.1,0,0.1,0c0.6,0,1.8-0.6,1.6-0.6c0,0,0,0,0,0
		c0.6-0.3,0.1-0.3-0.3-0.5c-0.1-0.6-0.2-1.4-0.6-1.8l0.2-0.3C27.2,9.7,27.1,9.6,27,9.6L27,9.6z M26,12.5c-0.1,0-0.2,0.2-0.3,0.3
		l-0.2,0L25.3,13l0,0.1l-0.2,0.3c-0.2,0.2-0.1,0.3,0.1,0.3c0,0,0.1,0,0.1,0c0.3-0.1,0.7-0.1,0.8-0.5c0-0.1,0-0.2,0-0.2
		c0,0-0.1,0-0.1-0.1c-0.1-0.1,0-0.2,0.2-0.2C26.1,12.6,26.1,12.5,26,12.5C26,12.5,26,12.5,26,12.5L26,12.5z M26.1,14
		C26.1,14,26.1,14,26.1,14C26.1,14,26.1,14,26.1,14L26.1,14z M33.1,18.6c-0.2,0-1.2,0.1-1.1,0.3c0.2,0.3,0.3,0.4,0.5,0.4
		C32.9,19.2,33.2,18.6,33.1,18.6L33.1,18.6z M38,18.8C38,18.9,38,18.9,38,18.8C38,18.9,38,18.9,38,18.8L38,18.8z"/>
</g>
</svg>
