<svg xmlns="http://www.w3.org/2000/svg" viewBox="2576.5 634.5 74.208 56.152">
  <defs>
    <style>
      .cls-1 {
        fill: none;
        stroke: #52c776;
        stroke-linecap: round;
        stroke-linejoin: round;
        stroke-miterlimit: 10;
        stroke-width: 2px;
      }
    </style>
  </defs>
  <path id="Path_2" data-name="Path 2" class="cls-1" d="M36.811,47.226a2.109,2.109,0,0,1,.453,2.962l-2.43,3.285a2.193,2.193,0,0,1-2.966.453,2.118,2.118,0,0,1-.457-2.966l2.434-3.285A2.123,2.123,0,0,1,36.811,47.226Zm-14.83-3.143,2.426-3.269A2.124,2.124,0,0,0,20.985,38.3l-2.422,3.273a2.127,2.127,0,0,0,.453,2.97A2.209,2.209,0,0,0,21.981,44.082Zm7.571.473-2.422,3.269a2.134,2.134,0,0,0,.453,2.974,2.2,2.2,0,0,0,2.97-.453l2.422-3.273a2.124,2.124,0,0,0-3.423-2.517ZM40.27,50.924a19.994,19.994,0,0,1-2.127,3.139A2.943,2.943,0,0,0,39.5,54.4c1.631,0,2.714-1.536,1.249-3Zm-15-9.5-2.442,3.3a2.1,2.1,0,0,0,.469,2.942,2.166,2.166,0,0,0,2.95-.429l2.442-3.3a2.12,2.12,0,1,0-3.419-2.509Zm38.349-2.442,8.839-2.352L67.7,18.3l-8.961,2.694ZM56.151,22.974c-4.372.319-8.528-1.292-13.089-3.647a7.461,7.461,0,0,0-3.293-.937,3.737,3.737,0,0,0-2.915,1.327c-3.084,3.494-4.876,6.578-8.547,8.721-1.808,1.056.315,4.36,4.2,3.005a27.132,27.132,0,0,0,6.85-4.25c1.721-1.387,2.749-1.186,4.242.307C46.395,30.3,55.8,39.572,55.8,39.572a35.938,35.938,0,0,1,4.25-2.245ZM13.977,21,5.012,18.3.25,36.638l8.839,2.352Zm40.335,21.44c-1.457-1.611-11.242-11.23-12.983-12.967-2.954,2.218-6.842,5.3-10.6,5.3a5.947,5.947,0,0,1-5.92-4.073A4.271,4.271,0,0,1,26.8,25.833a19.531,19.531,0,0,0,5.282-5.089C26.8,17.412,22.3,22.828,16.589,22.879L12.756,36.973A36.856,36.856,0,0,1,17.239,38.3l1.323-1.788a5.137,5.137,0,0,1,8.874,1.056,5.147,5.147,0,0,1,4.286,3.128A5.12,5.12,0,0,1,36,43.822a5.094,5.094,0,0,1,4.6,5.932l1.969,1.969a2.124,2.124,0,0,0,3-3.005l-3.8-3.805a.528.528,0,0,1,.008-.756.535.535,0,0,1,.744.008l4.581,4.585a2.122,2.122,0,0,0,3-3L44.468,40.1a.525.525,0,0,1,.02-.768.532.532,0,0,1,.733.016l6.094,6.094a2.124,2.124,0,1,0,3-3.009ZM33.656,9.136,32.088.25m8.532,0L39.052,9.136m9.891-6.172-4.514,7.815m-16.122,0L23.793,2.964" transform="translate(2577.25 635.25)"/>
</svg>
