<svg xmlns="http://www.w3.org/2000/svg" viewBox="2330.521 416.315 56.057 56.243">
  <defs>
    <style>
      .cls-1 {
        fill: none;
        stroke: #e37c5b;
        stroke-width: 2px;
      }
    </style>
  </defs>
  <path id="iconmonstr-time-4" class="cls-1" d="M0,27.029a27.029,27.029,0,0,0,54.057,0,27.336,27.336,0,0,0-.527-5.313H48.854a22.008,22.008,0,0,1,.7,5.313A22.524,22.524,0,1,1,27.029,4.5a22.325,22.325,0,0,1,13.417,4.48L35.831,13.6l15.794,3.05L48.575.854,43.658,5.771A26.982,26.982,0,0,0,0,27.029ZM29.281,13.514V31.533H13.514v-4.5H24.776V13.514Z" transform="translate(2331.521 417.5)"/>
</svg>
