<svg width="18" height="18" xmlns="http://www.w3.org/2000/svg">
 <style type="text/css">.st0{fill:#1C1C1C;}
	.st1{fill:none;}</style>

 <g>
  <title>background</title>
  <rect fill="none" id="canvas_background" height="402" width="582" y="-1" x="-1"/>
 </g>
 <g>
  <title>Layer 1</title>
  <g transform="rotate(-179.5558319091797 9.000000000000002,9.000012397766112) " id="Group_118">
   <g id="Path_11">
    <polygon points="8.89990234375,13.20001220703125 3.60009765625,7.899993896484375 5,6.600006103515625 8.89990234375,10.5 12.699951171875,6.600006103515625 14.10009765625,8 " class="st0" id="XMLID_4_"/>
   </g>
   <g id="Ellipse_32">
    <g id="svg_1">
     <ellipse ry="9" rx="9" cy="9.000012" cx="9" class="st1" id="XMLID_3_"/>
    </g>
    <g id="svg_2">
     <path id="svg_3" d="m9,18.000012c-5,0 -9,-4 -9,-9s4,-9 9,-9c5,0 9,4 9,9s-4,9 -9,9zm0,-16.1c-3.9,0 -7.1,3.2 -7.1,7.1c0,3.9 3.2,7.1 7.1,7.1c3.9,0 7.1,-3.2 7.1,-7.1c0,-3.9 -3.2,-7.1 -7.1,-7.1z" class="st0"/>
    </g>
   </g>
  </g>
 </g>
</svg>