<!DOCTYPE svg PUBLIC "-//W3C//DTD SVG 20010904//EN" "http://www.w3.org/TR/2001/REC-SVG-20010904/DTD/svg10.dtd">
<svg version="1.0" xmlns="http://www.w3.org/2000/svg" width="641px" height="334px" viewBox="0 0 6410 3340" preserveAspectRatio="xMidYMid meet">
<g id="layer1" fill="#abb050" stroke="none">
 <path d="M3200 3100 c0 -49 4 -70 13 -70 8 0 12 21 12 70 0 49 -4 70 -12 70 -9 0 -13 -21 -13 -70z"/>
 <path d="M3663 3163 c4 -3 10 -3 14 0 3 4 0 7 -7 7 -7 0 -10 -3 -7 -7z"/>
 <path d="M4628 3105 c2 -36 8 -65 13 -65 13 0 7 122 -6 127 -6 2 -9 -22 -7 -62z"/>
 <path d="M5373 3033 c15 -2 39 -2 55 0 15 2 2 4 -28 4 -30 0 -43 -2 -27 -4z"/>
 <path d="M5523 3033 c9 -2 25 -2 35 0 9 3 1 5 -18 5 -19 0 -27 -2 -17 -5z"/>
 </g>
<g id="layer2" fill="#d53439" stroke="none">
 <path d="M868 3153 c-42 -5 -56 -30 -44 -78 l6 -25 218 2 217 3 3 48 3 47 -163 0 c-90 0 -172 2 -183 4 -11 2 -37 1 -57 -1z"/>
 </g>
<g id="layer3" fill="#624541" stroke="none">
 <path d="M3693 3163 c4 -3 10 -3 14 0 3 4 0 7 -7 7 -7 0 -10 -3 -7 -7z"/>
 <path d="M4143 3163 c4 -3 10 -3 14 0 3 4 0 7 -7 7 -7 0 -10 -3 -7 -7z"/>
 <path d="M3687 3053 c-4 -3 -7 -11 -7 -17 0 -6 5 -5 12 2 6 6 9 14 7 17 -3 3 -9 2 -12 -2z"/>
 <path d="M3028 2883 c7 -3 16 -2 19 1 4 3 -2 6 -13 5 -11 0 -14 -3 -6 -6z"/>
 <path d="M4693 2883 c9 -2 23 -2 30 0 6 3 -1 5 -18 5 -16 0 -22 -2 -12 -5z"/>
 <path d="M4788 2883 c7 -3 16 -2 19 1 4 3 -2 6 -13 5 -11 0 -14 -3 -6 -6z"/>
 <path d="M3156 2852 c11 -9 26 -26 32 -37 6 -11 12 -15 12 -9 0 16 -39 64 -53 64 -7 -1 -3 -8 9 -18z"/>
 <path d="M2980 2796 c0 -9 5 -16 10 -16 6 0 10 4 10 9 0 6 -4 13 -10 16 -5 3 -10 -1 -10 -9z"/>
 <path d="M1595 2770 c-6 -10 7 -14 33 -11 7 1 28 -8 47 -19 19 -12 35 -19 35 -16 0 7 -84 56 -98 56 -6 0 -14 -4 -17 -10z"/>
 <path d="M4510 2770 c-12 -8 -9 -10 13 -10 15 0 41 -7 57 -15 17 -9 30 -11 30 -6 0 25 -74 48 -100 31z"/>
 <path d="M4803 2770 c-13 -5 -23 -14 -23 -20 0 -7 6 -8 19 0 25 13 68 13 76 0 7 -12 25 -13 25 -2 0 4 -15 13 -33 20 -38 14 -35 14 -64 2z"/>
 <path d="M1250 2766 c0 -2 9 -6 20 -9 11 -3 18 -1 14 4 -5 9 -34 13 -34 5z"/>
 <path d="M1373 2763 c4 -3 10 -3 14 0 3 4 0 7 -7 7 -7 0 -10 -3 -7 -7z"/>
 <path d="M2063 2763 c4 -3 10 -3 14 0 3 4 0 7 -7 7 -7 0 -10 -3 -7 -7z"/>
 <path d="M2168 2763 c7 -3 16 -2 19 1 4 3 -2 6 -13 5 -11 0 -14 -3 -6 -6z"/>
 <path d="M2403 2763 c4 -3 10 -3 14 0 3 4 0 7 -7 7 -7 0 -10 -3 -7 -7z"/>
 <path d="M2435 2760 c3 -5 8 -10 11 -10 2 0 4 5 4 10 0 6 -5 10 -11 10 -5 0 -7 -4 -4 -10z"/>
 <path d="M2528 2763 c6 -2 18 -2 25 0 6 3 1 5 -13 5 -14 0 -19 -2 -12 -5z"/>
 <path d="M2740 2760 c-13 -9 -13 -10 0 -10 8 0 22 5 30 10 13 9 13 10 0 10 -8 0 -22 -5 -30 -10z"/>
 <path d="M2810 2766 c0 -2 7 -7 16 -10 8 -3 12 -2 9 4 -6 10 -25 14 -25 6z"/>
 <path d="M2903 2763 c4 -3 10 -3 14 0 3 4 0 7 -7 7 -7 0 -10 -3 -7 -7z"/>
 <path d="M3240 2760 c19 -13 30 -13 30 0 0 6 -10 10 -22 10 -19 0 -20 -2 -8 -10z"/>
 <path d="M3333 2763 c4 -3 10 -3 14 0 3 4 0 7 -7 7 -7 0 -10 -3 -7 -7z"/>
 <path d="M3488 2763 c7 -3 16 -2 19 1 4 3 -2 6 -13 5 -11 0 -14 -3 -6 -6z"/>
 <path d="M3603 2763 c4 -3 10 -3 14 0 3 4 0 7 -7 7 -7 0 -10 -3 -7 -7z"/>
 <path d="M3823 2763 c4 -3 10 -3 14 0 3 4 0 7 -7 7 -7 0 -10 -3 -7 -7z"/>
 <path d="M3862 2756 c7 -8 15 -12 17 -11 5 6 -10 25 -20 25 -5 0 -4 -6 3 -14z"/>
 <path d="M3935 2760 c-7 -12 12 -12 40 0 18 8 17 9 -7 9 -15 1 -30 -3 -33 -9z"/>
 <path d="M4993 2763 c4 -3 10 -3 14 0 3 4 0 7 -7 7 -7 0 -10 -3 -7 -7z"/>
 <path d="M5076 2761 c-4 -5 3 -7 14 -4 23 6 26 13 6 13 -8 0 -17 -4 -20 -9z"/>
 <path d="M2008 2748 c6 -6 18 -8 28 -6 14 3 12 5 -9 10 -19 3 -25 2 -19 -4z"/>
 <path d="M3640 2740 c6 -11 15 -20 21 -20 6 0 6 7 -1 20 -6 11 -15 20 -21 20 -6 0 -6 -7 1 -20z"/>
 <path d="M1924 2735 c21 -16 32 -13 21 4 -3 6 -14 11 -23 11 -15 -1 -15 -2 2 -15z"/>
 <path d="M3098 2733 c7 -3 16 -2 19 1 4 3 -2 6 -13 5 -11 0 -14 -3 -6 -6z"/>
 <path d="M4340 2723 c1 -5 7 -19 15 -33 10 -18 14 -20 15 -8 0 23 -11 48 -21 48 -5 0 -9 -3 -9 -7z"/>
 <path d="M5340 2712 c6 -13 14 -21 18 -18 3 4 -2 14 -12 24 -18 16 -18 16 -6 -6z"/>
 <path d="M5034 2595 c0 -71 1 -99 3 -62 2 37 2 96 0 130 -2 34 -3 4 -3 -68z"/>
 <path d="M3000 2696 c0 -2 8 -10 18 -17 15 -13 16 -12 3 4 -13 16 -21 21 -21 13z"/>
 <path d="M3054 2679 c-16 -6 -15 -8 8 -8 14 -1 33 -4 42 -7 9 -3 16 -2 16 4 0 13 -42 20 -66 11z"/>
 <path d="M4210 2600 c0 -5 21 -10 46 -10 27 0 43 4 39 10 -3 6 -24 10 -46 10 -21 0 -39 -4 -39 -10z"/>
 <path d="M5200 2600 c0 -5 25 -10 55 -10 30 0 55 5 55 10 0 6 -25 10 -55 10 -30 0 -55 -4 -55 -10z"/>
 <path d="M3960 2590 c-12 -8 -9 -10 13 -10 16 0 26 4 22 10 -8 12 -16 12 -35 0z"/>
 <path d="M2525 2580 c3 -5 8 -10 11 -10 3 0 2 5 -1 10 -3 6 -8 10 -11 10 -3 0 -2 -4 1 -10z"/>
 <path d="M1360 2561 c0 -6 4 -13 10 -16 6 -3 7 1 4 9 -7 18 -14 21 -14 7z"/>
 <path d="M2165 2540 c10 -11 20 -20 23 -20 3 0 -3 9 -13 20 -10 11 -20 20 -23 20 -3 0 3 -9 13 -20z"/>
 <path d="M4190 2552 c0 -20 38 -42 71 -41 27 1 29 3 9 6 -14 3 -37 14 -52 25 -16 11 -28 15 -28 10z"/>
 <path d="M4785 2550 c3 -5 8 -10 11 -10 3 0 2 5 -1 10 -3 6 -8 10 -11 10 -3 0 -2 -4 1 -10z"/>
 <path d="M5189 2541 c12 -22 65 -45 86 -37 23 8 18 28 -5 21 -13 -4 -34 1 -56 14 -32 19 -34 19 -25 2z"/>
 <path d="M3330 2541 c0 -5 7 -12 16 -15 24 -9 28 -7 14 9 -14 17 -30 20 -30 6z"/>
 <path d="M4473 2529 c14 -23 63 -35 81 -20 7 6 17 7 21 3 5 -4 5 -2 2 4 -4 6 -18 9 -31 7 -14 -3 -38 2 -55 10 -28 14 -29 14 -18 -4z"/>
 <path d="M1573 2518 c11 -10 24 -15 31 -11 7 5 4 9 -9 11 -11 2 -25 7 -30 11 -6 3 -2 -2 8 -11z"/>
 <path d="M2058 2533 c7 -3 16 -2 19 1 4 3 -2 6 -13 5 -11 0 -14 -3 -6 -6z"/>
 <path d="M2800 2530 c20 -13 33 -13 25 0 -3 6 -14 10 -23 10 -15 0 -15 -2 -2 -10z"/>
 <path d="M3190 2530 c0 -5 5 -10 10 -10 6 0 10 5 10 10 0 6 -4 10 -10 10 -5 0 -10 -4 -10 -10z"/>
 <path d="M4688 2533 c6 -2 18 -2 25 0 6 3 1 5 -13 5 -14 0 -19 -2 -12 -5z"/>
 <path d="M1835 2520 c-3 -5 -1 -10 4 -10 6 0 11 5 11 10 0 6 -2 10 -4 10 -3 0 -8 -4 -11 -10z"/>
 <path d="M3033 2513 c9 -9 20 -13 24 -9 4 4 1 11 -7 16 -25 16 -35 11 -17 -7z"/>
 <path d="M3523 2523 c4 -3 10 -3 14 0 3 4 0 7 -7 7 -7 0 -10 -3 -7 -7z"/>
 <path d="M3615 2520 c-4 -6 5 -10 19 -10 14 0 26 5 26 10 0 6 -9 10 -19 10 -11 0 -23 -4 -26 -10z"/>
 <path d="M1773 2513 c9 -2 25 -2 35 0 9 3 1 5 -18 5 -19 0 -27 -2 -17 -5z"/>
 <path d="M1928 2513 c6 -2 18 -2 25 0 6 3 1 5 -13 5 -14 0 -19 -2 -12 -5z"/>
 <path d="M1993 2513 c4 -3 10 -3 14 0 3 4 0 7 -7 7 -7 0 -10 -3 -7 -7z"/>
 <path d="M4755 2510 c3 -5 8 -10 11 -10 2 0 4 5 4 10 0 6 -5 10 -11 10 -5 0 -7 -4 -4 -10z"/>
 <path d="M1390 2503 c1 -5 12 -21 25 -38 16 -20 25 -25 25 -14 0 8 -9 25 -20 37 -22 23 -30 27 -30 15z"/>
 <path d="M3591 2444 c0 -11 3 -14 6 -6 3 7 2 16 -1 19 -3 4 -6 -2 -5 -13z"/>
 <path d="M1483 2393 c9 -9 20 -13 24 -9 4 4 1 11 -7 16 -25 16 -35 11 -17 -7z"/>
 <path d="M2530 2400 c-12 -8 -11 -10 8 -10 12 0 22 5 22 10 0 13 -11 13 -30 0z"/>
 <path d="M2575 2400 c-3 -5 3 -10 15 -10 12 0 18 5 15 10 -3 6 -10 10 -15 10 -5 0 -12 -4 -15 -10z"/>
 <path d="M3230 2400 c0 -6 7 -10 15 -10 8 0 15 2 15 4 0 2 -7 6 -15 10 -8 3 -15 1 -15 -4z"/>
 <path d="M3975 2399 c-15 -6 -11 -8 18 -8 20 -1 37 1 37 3 0 9 -37 12 -55 5z"/>
 <path d="M4990 2400 c0 -6 7 -10 15 -10 8 0 15 2 15 4 0 2 -7 6 -15 10 -8 3 -15 1 -15 -4z"/>
 <path d="M1143 2393 c4 -3 10 -3 14 0 3 4 0 7 -7 7 -7 0 -10 -3 -7 -7z"/>
 <path d="M2420 2390 c0 -5 5 -10 10 -10 6 0 10 5 10 10 0 6 -4 10 -10 10 -5 0 -10 -4 -10 -10z"/>
 <path d="M3863 2393 c4 -3 10 -3 14 0 3 4 0 7 -7 7 -7 0 -10 -3 -7 -7z"/>
 <path d="M5060 2380 c0 -5 5 -10 11 -10 5 0 7 5 4 10 -3 6 -8 10 -11 10 -2 0 -4 -4 -4 -10z"/>
 <path d="M5308 2123 c7 -3 16 -2 19 1 4 3 -2 6 -13 5 -11 0 -14 -3 -6 -6z"/>
 <path d="M5405 2090 c-3 -5 -1 -10 4 -10 6 0 11 5 11 10 0 6 -2 10 -4 10 -3 0 -8 -4 -11 -10z"/>
 <path d="M5435 2080 c3 -5 8 -10 11 -10 3 0 2 5 -1 10 -3 6 -8 10 -11 10 -3 0 -2 -4 1 -10z"/>
 <path d="M5250 2050 c0 -5 4 -10 9 -10 6 0 13 5 16 10 3 6 -1 10 -9 10 -9 0 -16 -4 -16 -10z"/>
 <path d="M5360 2050 c0 -5 9 -10 20 -10 11 0 20 5 20 10 0 6 -9 10 -20 10 -11 0 -20 -4 -20 -10z"/>
 <path d="M5334 1988 c-4 -7 -3 -8 4 -4 12 7 16 16 8 16 -3 0 -8 -5 -12 -12z"/>
 <path d="M5160 1985 c0 -5 5 -17 10 -25 5 -8 10 -10 10 -5 0 6 -5 17 -10 25 -5 8 -10 11 -10 5z"/>
 <path d="M5481 1964 c0 -11 3 -14 6 -6 3 7 2 16 -1 19 -3 4 -6 -2 -5 -13z"/>
 <path d="M5464 1908 c-4 -7 -3 -8 4 -4 12 7 16 16 8 16 -3 0 -8 -5 -12 -12z"/>
 <path d="M5250 1880 c0 -7 3 -10 7 -7 3 4 3 10 0 14 -4 3 -7 0 -7 -7z"/>
 <path d="M5245 1820 c3 -5 8 -10 11 -10 3 0 2 5 -1 10 -3 6 -8 10 -11 10 -3 0 -2 -4 1 -10z"/>
 <path d="M5394 1818 c-4 -7 -3 -8 4 -4 12 7 16 16 8 16 -3 0 -8 -5 -12 -12z"/>
 <path d="M1050 1810 c0 -7 3 -10 7 -7 3 4 3 10 0 14 -4 3 -7 0 -7 -7z"/>
 <path d="M3375 1460 c3 -5 8 -10 11 -10 3 0 2 5 -1 10 -3 6 -8 10 -11 10 -3 0 -2 -4 1 -10z"/>
 <path d="M5430 1360 c0 -7 3 -10 7 -7 3 4 3 10 0 14 -4 3 -7 0 -7 -7z"/>
 <path d="M5403 1353 c4 -3 10 -3 14 0 3 4 0 7 -7 7 -7 0 -10 -3 -7 -7z"/>
 <path d="M4103 1223 c4 -3 10 -3 14 0 3 4 0 7 -7 7 -7 0 -10 -3 -7 -7z"/>
 <path d="M3803 993 c4 -3 10 -3 14 0 3 4 0 7 -7 7 -7 0 -10 -3 -7 -7z"/>
 <path d="M4433 743 c4 -3 10 -3 14 0 3 4 0 7 -7 7 -7 0 -10 -3 -7 -7z"/>
 <path d="M3552 698 c5 -15 28 -23 28 -10 0 5 -7 13 -16 16 -10 4 -14 1 -12 -6z"/>
 <path d="M3208 593 c6 -2 18 -2 25 0 6 3 1 5 -13 5 -14 0 -19 -2 -12 -5z"/>
 <path d="M2723 463 c4 -3 10 -3 14 0 3 4 0 7 -7 7 -7 0 -10 -3 -7 -7z"/>
 </g>
<g id="layer4" fill="#663574" stroke="none">
 <path d="M3705 3157 c-2 -7 -5 -38 -7 -70 l-3 -57 228 0 228 0 -3 68 -3 67 -218 2 c-162 2 -219 -1 -222 -10z"/>
 </g>
<g id="layer5" fill="#f6b32e" stroke="none">
 <path d="M3225 3157 c-4 -13 -5 -46 -3 -73 l3 -49 228 -3 227 -2 0 61 c0 39 -5 65 -14 75 -12 11 -56 14 -225 14 l-211 0 -5 -23z"/>
 </g>
<g id="layer6" fill="#2d88ab" stroke="none">
 <path d="M4652 3104 l3 -66 225 2 c124 0 228 4 233 9 4 4 7 32 5 62 l-3 54 -233 3 -233 2 3 -66z"/>
 </g>
<g id="layer7" fill="#ed7f2f" stroke="none">
 <path d="M4188 3166 c-14 -10 -18 -28 -18 -75 l0 -61 233 0 232 0 -3 62 c-2 35 -9 69 -14 76 -15 18 -406 17 -430 -2z"/>
 </g>
<g id="layer8" fill="#517256" stroke="none">
 <path d="M1766 3161 c-3 -4 -5 -36 -5 -70 l1 -61 239 0 239 0 0 70 0 70 -234 0 c-129 0 -237 -4 -240 -9z"/>
 <path d="M2793 2763 c4 -3 10 -3 14 0 3 4 0 7 -7 7 -7 0 -10 -3 -7 -7z"/>
 <path d="M5355 2690 c-3 -5 -1 -10 4 -10 6 0 11 5 11 10 0 6 -2 10 -4 10 -3 0 -8 -4 -11 -10z"/>
 </g>
<g id="layer9" fill="#7aab52" stroke="none">
 <path d="M5168 3172 l-48 -3 0 -70 0 -70 238 3 c143 2 240 7 244 13 13 17 9 113 -4 121 -13 8 -346 13 -430 6z"/>
 </g>
<g id="layer10" fill="#64b4b7" stroke="none">
 <path d="M2241 3103 c2 -70 6 -63 11 20 2 26 0 47 -4 47 -5 0 -7 -30 -7 -67z"/>
 <path d="M2725 3105 l0 -64 238 -3 237 -3 0 68 0 67 -237 0 -238 0 0 -65z"/>
 <path d="M4783 3033 c65 -2 168 -2 230 0 62 1 9 3 -118 3 -126 0 -177 -2 -112 -3z"/>
 </g>
<g id="layer11" fill="#a05a74" stroke="none">
 <path d="M1298 3163 c-12 -3 -16 -15 -16 -41 1 -20 1 -47 0 -59 l-2 -23 -237 -3 c-131 -1 -23 -3 239 -5 l477 -2 3 23 c2 12 1 41 0 63 -4 38 -6 42 -37 47 -40 7 -403 7 -427 0z"/>
 <path d="M4160 3159 c0 -5 5 -7 10 -4 6 3 10 8 10 11 0 2 -4 4 -10 4 -5 0 -10 -5 -10 -11z"/>
 <path d="M4161 3124 c0 -11 3 -14 6 -6 3 7 2 16 -1 19 -3 4 -6 -2 -5 -13z"/>
 <path d="M4763 2753 c4 -3 10 -3 14 0 3 4 0 7 -7 7 -7 0 -10 -3 -7 -7z"/>
 <path d="M2595 2590 c-3 -5 -1 -10 4 -10 6 0 11 5 11 10 0 6 -2 10 -4 10 -3 0 -8 -4 -11 -10z"/>
 <path d="M1685 2540 c3 -5 8 -10 11 -10 3 0 2 5 -1 10 -3 6 -8 10 -11 10 -3 0 -2 -4 1 -10z"/>
 <path d="M5264 1908 c-4 -7 -3 -8 4 -4 12 7 16 16 8 16 -3 0 -8 -5 -12 -12z"/>
 <path d="M3294 1538 c-4 -7 -3 -8 4 -4 12 7 16 16 8 16 -3 0 -8 -5 -12 -12z"/>
 <path d="M3374 1458 c-4 -7 -3 -8 4 -4 7 4 12 9 12 12 0 8 -9 4 -16 -8z"/>
 <path d="M2804 1448 c-4 -7 -3 -8 4 -4 7 4 12 9 12 12 0 8 -9 4 -16 -8z"/>
 <path d="M4814 1438 c-4 -7 -3 -8 4 -4 7 4 12 9 12 12 0 8 -9 4 -16 -8z"/>
 <path d="M1745 630 c3 -5 8 -10 11 -10 3 0 2 5 -1 10 -3 6 -8 10 -11 10 -3 0 -2 -4 1 -10z"/>
 <path d="M3954 478 c-4 -7 -3 -8 4 -4 7 4 12 9 12 12 0 8 -9 4 -16 -8z"/>
 </g>
<g id="layer12" fill="#6dbfdf" stroke="none">
 <path d="M2255 3157 c-2 -7 -5 -38 -7 -70 l-3 -57 475 2 c261 2 369 4 240 5 l-235 3 0 63 0 62 -233 2 c-168 1 -234 -2 -237 -10z"/>
 </g>
<g id="layer13" fill="#8e4548" stroke="none">
 <path d="M1008 3172 l-208 -2 0 -68 0 -67 240 3 c271 3 244 -6 242 84 0 26 4 38 16 41 10 3 0 5 -20 6 -20 0 -42 2 -50 4 -7 1 -106 1 -220 -1z m100 -22 l163 0 -3 -47 -3 -48 -217 -3 -218 -2 -6 25 c-12 48 2 73 44 78 20 2 46 3 57 1 11 -2 93 -4 183 -4z"/>
 <path d="M1723 3163 c9 -2 23 -2 30 0 6 3 -1 5 -18 5 -16 0 -22 -2 -12 -5z"/>
 <path d="M3680 3110 c0 -38 4 -59 10 -55 6 3 10 28 10 55 0 27 -4 52 -10 55 -6 4 -10 -17 -10 -55z"/>
 <path d="M4150 3097 c0 -41 4 -67 11 -67 7 0 9 21 6 60 -5 83 -17 88 -17 7z"/>
 <path d="M2991 2878 c-28 -10 -53 -58 -30 -58 5 0 9 -8 9 -17 0 -12 7 -7 20 15 11 17 27 32 35 32 8 0 15 4 15 9 0 5 8 8 18 6 66 -13 91 -13 85 1 -3 7 -9 11 -14 8 -5 -3 -9 0 -9 6 0 12 -96 10 -129 -2z"/>
 <path d="M4725 2882 c-6 -4 -10 -78 -10 -184 0 -175 0 -177 23 -188 13 -5 21 -6 18 -1 -4 5 -1 11 5 13 12 4 19 228 8 228 -3 0 -5 10 -3 23 2 12 5 43 7 70 4 43 3 47 -17 47 -11 0 -25 -4 -31 -8z"/>
 <path d="M3184 2818 c-4 -7 -3 -8 4 -4 7 4 12 9 12 12 0 8 -9 4 -16 -8z"/>
 <path d="M3189 2797 c-14 -13 -135 -36 -159 -30 -3 1 -14 5 -24 9 -14 5 -17 4 -12 -4 4 -7 3 -12 -2 -12 -26 0 -20 -33 10 -61 24 -21 28 -29 15 -29 -21 0 -47 -48 -43 -81 4 -32 22 -65 40 -72 11 -4 13 4 9 44 -3 31 1 59 10 78 13 27 13 31 -7 50 -33 33 -14 42 106 45 41 1 82 35 76 63 -3 15 -4 15 -19 0z"/>
 <path d="M1845 2768 c-32 -18 -35 -28 -35 -115 0 -45 -4 -93 -9 -106 -8 -21 -6 -26 9 -30 31 -8 40 14 40 101 0 98 8 117 52 126 25 5 29 9 18 15 -30 17 -55 20 -75 9z"/>
 <path d="M1965 2761 c1 -9 0 -20 -3 -25 -6 -11 -5 -217 2 -223 2 -3 14 -2 25 2 18 5 20 16 23 125 2 65 0 116 -4 113 -5 -2 -8 0 -8 5 0 5 -9 12 -19 15 -13 3 -18 0 -16 -12z"/>
 <path d="M4243 2773 c-12 -2 -36 -20 -53 -39 -25 -30 -30 -42 -29 -87 1 -61 10 -89 30 -92 12 -2 15 7 12 47 -2 31 3 61 13 79 19 37 70 62 97 47 27 -14 42 4 20 24 -21 18 -58 27 -90 21z"/>
 <path d="M5220 2762 c-40 -19 -70 -71 -70 -120 0 -44 24 -99 43 -99 11 0 14 5 8 16 -13 25 -5 98 13 127 21 31 76 57 92 43 7 -5 21 -12 33 -14 20 -4 20 -3 5 20 -13 20 -60 45 -83 45 -3 0 -22 -8 -41 -18z"/>
 <path d="M1275 2761 c-3 -5 -1 -12 5 -16 5 -3 10 -37 10 -74 0 -67 0 -68 -70 -170 -41 -61 -64 -103 -57 -106 37 -11 107 -14 107 -4 0 6 -6 9 -14 6 -30 -12 -9 50 42 125 51 76 52 78 52 153 0 43 4 75 10 75 6 0 10 5 10 10 0 13 -87 13 -95 1z"/>
 <path d="M1536 2744 c-38 -39 -52 -94 -37 -145 14 -48 55 -91 78 -82 13 5 13 7 -1 15 -24 13 -38 80 -27 128 10 47 36 90 54 90 15 0 -13 20 -29 20 -6 0 -23 -12 -38 -26z m29 -214 c3 -5 4 -10 1 -10 -3 0 -8 5 -11 10 -3 6 -4 10 -1 10 3 0 8 -4 11 -10z"/>
 <path d="M1645 2760 c-3 -6 1 -7 10 -4 9 4 15 3 14 -2 -1 -5 3 -22 10 -39 16 -37 8 -124 -13 -158 -9 -13 -29 -30 -44 -37 -37 -17 -12 -25 34 -10 24 8 34 17 30 26 -4 10 0 14 11 12 35 -6 57 91 32 146 -6 13 -21 29 -33 35 -19 10 -19 11 -1 6 17 -4 16 -2 -5 15 -28 22 -36 24 -45 10z"/>
 <path d="M2080 2762 c0 -4 5 -13 11 -19 12 -12 8 -177 -4 -204 -6 -11 0 -19 18 -27 30 -14 38 -15 31 -4 -2 4 -1 14 4 21 6 11 13 10 35 -8 15 -11 34 -21 41 -21 19 0 35 33 23 51 -7 12 -13 12 -38 -3 -46 -25 -56 -5 -57 113 -2 85 0 97 14 92 10 -4 13 -2 8 5 -8 13 -86 17 -86 4z"/>
 <path d="M2433 2753 c16 -19 18 -39 15 -192 l-3 -171 35 0 c19 0 42 5 50 10 13 8 12 10 -2 10 -16 0 -18 10 -18 79 0 54 4 81 13 84 17 6 79 -20 95 -40 19 -26 15 -77 -8 -98 -15 -14 -17 -21 -9 -32 16 -18 23 -17 58 13 26 21 31 33 31 68 0 48 -25 80 -74 92 -25 6 -27 9 -13 19 9 6 36 38 60 71 25 32 54 69 66 82 l22 22 -39 0 c-36 0 -41 -4 -89 -72 -28 -40 -51 -77 -52 -83 -3 -13 -43 -35 -53 -29 -12 8 -10 164 3 164 5 0 7 5 4 10 -9 14 -75 13 -75 -1 0 -8 -6 -7 -17 2 -16 12 -16 11 0 -8z"/>
 <path d="M2830 2765 c-1 -3 -1 -58 -1 -122 0 -101 2 -119 17 -130 10 -7 21 -13 26 -13 4 0 8 59 8 131 0 84 4 128 10 124 6 -3 10 -1 10 4 0 11 -70 16 -70 6z"/>
 <path d="M3270 2762 c0 -4 -1 -91 -2 -194 -2 -102 0 -184 5 -181 4 2 7 0 7 -6 0 -5 9 -9 21 -8 20 1 21 6 17 89 -3 48 -1 85 3 83 4 -3 10 -1 14 5 3 5 2 10 -4 10 -5 0 -11 42 -13 99 -2 82 -1 98 11 93 9 -3 12 -1 7 6 -8 13 -66 17 -66 4z"/>
 <path d="M3400 2758 c0 -4 5 -8 10 -8 11 0 14 -167 4 -194 -3 -9 -16 -16 -28 -16 -30 0 -29 -29 1 -36 34 -9 71 19 78 59 4 19 5 70 3 114 -2 45 0 79 5 76 4 -2 7 1 7 7 0 6 -16 10 -40 8 -22 -1 -40 -6 -40 -10z"/>
 <path d="M3572 2758 c-8 -8 -12 -51 -12 -119 0 -97 -2 -108 -19 -114 -17 -5 -16 -9 13 -38 34 -36 46 -37 46 -3 0 12 5 27 12 34 9 9 9 12 0 12 -8 0 -12 28 -12 94 0 82 3 97 19 108 11 8 17 18 13 23 -10 15 -47 16 -60 3z"/>
 <path d="M3864 2758 c-4 -7 -3 -8 5 -4 9 6 12 -34 10 -176 l-2 -183 35 -3 c18 -2 45 2 58 7 25 11 24 11 -5 8 l-30 -2 -3 79 c-2 57 1 82 10 88 11 6 10 10 -1 17 -10 6 -12 29 -9 95 l4 86 -32 0 c-18 0 -36 -5 -40 -12z"/>
 <path d="M4463 2755 c-31 -22 -57 -96 -49 -139 7 -37 52 -100 66 -91 4 3 1 23 -6 46 -22 61 1 153 43 178 10 6 13 11 6 11 -6 0 -17 2 -25 5 -7 3 -23 -2 -35 -10z m12 -215 c3 -5 4 -10 1 -10 -3 0 -8 5 -11 10 -3 6 -4 10 -1 10 3 0 8 -4 11 -10z"/>
 <path d="M4860 2760 c-10 -6 -11 -10 -3 -10 33 0 54 -99 33 -154 -14 -37 -53 -60 -79 -47 -31 17 -35 -5 -5 -28 15 -12 35 -21 46 -21 28 0 60 19 52 32 -4 7 -3 8 5 4 18 -12 43 59 37 109 -6 56 -31 103 -53 101 -10 0 -17 5 -15 12 2 14 1 15 -18 2z"/>
 <path d="M5010 2765 c0 -3 7 -17 16 -31 14 -21 16 -46 11 -167 -3 -78 -8 -152 -12 -163 -5 -15 -2 -23 12 -28 10 -4 19 -2 21 3 2 6 8 9 13 5 5 -3 9 71 9 180 0 102 1 189 3 194 1 4 -15 8 -35 10 -21 2 -38 1 -38 -3z"/>
 <path d="M4610 2739 c0 -5 -4 -8 -10 -4 -5 3 -5 -7 2 -25 6 -18 8 -51 5 -75 -7 -47 -36 -117 -47 -110 -4 2 -7 -2 -7 -10 0 -11 4 -12 14 -4 7 6 13 8 13 5 0 -15 43 18 60 47 26 41 25 97 0 147 -20 40 -30 49 -30 29z"/>
 <path d="M3119 2663 c-1 -5 0 -12 1 -18 11 -53 -9 -125 -35 -125 -8 0 -15 -4 -15 -10 0 -5 7 -10 15 -10 8 0 15 4 15 10 0 5 7 6 17 3 9 -4 14 -2 11 3 -4 5 9 9 27 8 21 -1 36 3 39 12 3 8 -1 14 -9 14 -11 0 -15 12 -15 43 0 30 -6 49 -18 60 -20 18 -31 21 -33 10z"/>
 <path d="M4295 2600 c4 -6 11 -8 16 -5 5 4 9 2 9 -4 0 -18 -23 -61 -32 -61 -5 0 -6 -4 -3 -10 3 -5 -4 -11 -17 -11 -18 -1 -19 -2 -5 -6 10 -3 26 -1 35 3 9 4 19 8 22 8 16 3 30 19 24 27 -3 5 0 8 7 7 12 -3 31 46 21 56 -10 11 -83 6 -77 -4z"/>
 <path d="M5310 2591 c0 -10 -7 -35 -15 -55 -17 -40 -15 -42 24 -21 29 15 41 33 46 73 3 18 -1 22 -26 22 -22 0 -29 -5 -29 -19z"/>
 <path d="M3990 2597 c0 -2 14 -18 30 -35 39 -42 41 -92 4 -129 -28 -28 -26 -35 11 -35 76 0 109 134 42 176 -22 14 -87 31 -87 23z"/>
 <path d="M1345 2580 c-7 -12 35 -74 53 -78 9 -2 9 6 -3 28 -9 18 -20 28 -27 24 -7 -5 -9 -2 -5 9 7 18 -8 33 -18 17z"/>
 <path d="M1414 2453 c9 -17 13 -39 10 -47 -5 -12 1 -16 24 -16 25 0 29 3 25 20 -5 20 -33 49 -33 34 0 -5 -10 2 -21 16 l-20 25 15 -32z"/>
 <path d="M2830 2395 c0 -20 5 -25 25 -25 20 0 25 5 25 25 0 20 -5 25 -25 25 -20 0 -25 -5 -25 -25z"/>
 <path d="M2560 2399 c0 -5 5 -7 10 -4 6 3 10 8 10 11 0 2 -4 4 -10 4 -5 0 -10 -5 -10 -11z"/>
 <path d="M1125 2390 c3 -5 11 -10 16 -10 6 0 7 5 4 10 -3 6 -11 10 -16 10 -6 0 -7 -4 -4 -10z"/>
 <path d="M1393 2393 c4 -3 10 -3 14 0 3 4 0 7 -7 7 -7 0 -10 -3 -7 -7z"/>
 <path d="M3845 2390 c3 -5 11 -10 16 -10 6 0 7 5 4 10 -3 6 -11 10 -16 10 -6 0 -7 -4 -4 -10z"/>
 <path d="M1366 2154 c-197 -43 -316 -169 -314 -333 0 -34 5 -61 10 -61 5 0 7 -4 4 -9 -8 -12 14 -71 26 -71 5 0 7 -4 4 -9 -9 -13 73 -119 135 -175 158 -143 476 -298 660 -321 45 -6 70 -16 64 -26 -4 -5 -17 -9 -30 -9 -12 0 -53 -9 -90 -21 -93 -29 -166 -99 -190 -184 -32 -110 9 -238 110 -342 34 -35 58 -52 66 -48 8 5 10 4 5 -3 -9 -15 79 -71 208 -133 185 -88 507 -183 781 -231 175 -30 576 -33 725 -5 118 22 281 65 298 79 6 6 12 8 12 4 0 -11 115 36 137 57 33 30 38 69 14 123 -15 32 -25 44 -35 41 -10 -4 -13 -1 -10 8 10 26 -153 128 -305 189 -85 34 -97 19 -35 -42 145 -144 -82 -211 -614 -182 -125 7 -240 14 -257 16 -50 5 -254 43 -345 65 -77 18 -308 103 -320 118 -3 4 -27 21 -55 38 -75 48 -125 104 -136 153 -16 71 5 108 81 143 40 19 67 21 239 24 135 2 198 6 208 15 44 37 34 117 -21 166 -47 41 -123 67 -236 82 -277 36 -640 188 -767 321 -44 47 -76 123 -69 163 8 39 46 82 93 101 92 39 382 4 633 -77 154 -49 326 -140 365 -193 12 -16 39 -79 59 -140 45 -132 79 -192 226 -395 140 -193 201 -263 296 -339 110 -89 156 -113 217 -115 48 -1 53 1 65 28 12 24 12 38 -3 99 -32 130 -135 338 -238 477 -81 110 -209 251 -223 246 -8 -3 -11 0 -7 9 6 17 -122 154 -174 186 -29 18 -33 26 -33 62 0 42 27 128 46 147 6 6 24 14 40 19 45 13 91 -7 194 -84 98 -73 144 -130 220 -270 112 -207 211 -309 322 -330 105 -20 114 94 18 222 -29 38 -45 51 -57 46 -12 -5 -15 -2 -11 9 8 19 -51 78 -70 71 -7 -3 -10 1 -7 9 3 8 -24 43 -65 83 -75 74 -83 98 -59 162 22 58 46 73 120 73 62 0 77 -5 169 -52 113 -57 146 -90 200 -198 48 -96 192 -310 203 -303 6 3 7 2 4 -4 -3 -5 3 -22 14 -39 10 -16 19 -32 19 -36 0 -5 -51 -8 -114 -8 -112 0 -115 0 -111 -22 6 -31 64 -123 106 -169 l36 -39 107 0 c121 0 105 9 209 -114 27 -31 53 -53 59 -50 6 4 8 2 4 -4 -3 -6 13 -26 36 -46 39 -34 45 -36 114 -36 99 0 108 4 89 40 -8 16 -53 69 -101 119 l-85 90 35 7 c20 3 47 3 62 0 14 -4 41 -4 60 0 49 9 45 39 -14 97 -27 26 -51 45 -55 42 -4 -3 -5 -2 -2 1 2 4 -7 21 -20 39 -14 17 -25 37 -25 44 0 9 -30 12 -115 10 -63 -2 -116 -1 -119 2 -3 3 -40 68 -82 145 -118 214 -163 355 -134 424 24 59 94 54 262 -20 73 -33 123 -61 132 -75 9 -13 34 -70 56 -126 55 -137 69 -163 134 -246 100 -128 238 -218 350 -230 143 -15 213 80 154 209 -31 67 -86 131 -106 123 -10 -3 -12 0 -9 10 8 18 -102 99 -267 198 l-118 71 5 45 c6 58 42 91 95 91 83 -1 249 -97 409 -238 216 -190 263 -221 377 -247 110 -26 138 -14 102 44 -29 47 -42 83 -56 154 -14 68 -26 77 -107 77 -97 0 -187 32 -309 110 -26 16 -51 27 -57 23 -6 -3 -7 -1 -3 5 3 6 -2 16 -13 21 -10 6 -65 53 -120 104 -117 109 -179 146 -256 154 -138 14 -248 -59 -269 -179 -4 -21 -9 -38 -12 -38 -9 0 -48 22 -133 78 -124 80 -256 133 -352 139 -76 6 -78 5 -107 -24 -33 -32 -52 -86 -52 -146 l0 -37 -108 79 c-166 121 -208 142 -278 140 -51 -2 -62 -6 -97 -38 -38 -34 -76 -103 -91 -163 -3 -16 -10 -28 -14 -28 -9 0 -38 21 -157 118 -42 35 -80 61 -83 58 -3 -3 -10 0 -16 8 -21 25 -96 46 -165 46 -59 0 -74 -4 -99 -25 -34 -28 -57 -79 -67 -148 -4 -26 -11 -47 -14 -47 -4 0 -33 18 -64 40 -32 22 -57 37 -57 35 0 -3 -9 4 -21 16 -22 22 -249 136 -284 142 -11 2 -33 10 -50 16 -48 20 -167 49 -250 60 -102 15 -205 13 -289 -5z m3227 -662 c115 -83 158 -122 174 -160 28 -67 -15 -105 -87 -76 -38 15 -160 134 -160 156 0 5 -6 6 -12 2 -7 -4 -10 -4 -6 0 3 4 -6 35 -22 69 -16 34 -31 73 -35 86 l-7 24 38 -22 c22 -13 74 -48 117 -79z m-1876 -120 c116 -93 343 -356 343 -399 0 -7 5 -13 11 -13 5 0 8 -3 6 -7 -3 -5 -1 -30 3 -58 4 -27 6 -53 4 -57 -9 -15 -67 17 -119 64 -69 62 -143 155 -186 233 -18 33 -38 63 -43 67 -6 4 -8 8 -3 8 4 0 -4 22 -17 49 -36 69 -66 151 -56 151 5 0 30 -17 57 -38z m-962 -742 c3 -5 4 -10 1 -10 -3 0 -8 5 -11 10 -3 6 -4 10 -1 10 3 0 8 -4 11 -10z"/>
 <path d="M5257 2116 c-7 -6 -19 -12 -27 -14 -49 -9 -106 -155 -70 -177 6 -4 8 -10 5 -15 -3 -5 2 -16 11 -24 8 -9 12 -16 7 -16 -4 0 7 -13 25 -30 36 -32 47 -38 37 -17 -4 6 -1 5 7 -3 17 -20 35 -25 86 -23 29 0 48 7 58 19 9 11 12 13 9 6 -15 -29 36 13 58 48 22 35 34 140 16 140 -5 0 -6 7 -3 15 4 8 1 15 -5 15 -6 0 -10 4 -8 8 3 10 -60 72 -76 73 -54 7 -121 4 -130 -5z m123 -26 c9 -6 19 -5 29 3 11 10 13 9 9 -3 -2 -8 6 -30 20 -50 20 -29 23 -44 19 -89 -3 -47 -9 -58 -44 -91 -36 -35 -44 -38 -91 -36 -65 2 -99 26 -134 97 -15 30 -27 59 -27 64 0 6 3 4 6 -3 2 -7 15 9 29 35 13 27 36 56 51 65 30 19 109 24 133 8z m100 -174 c0 -3 -5 -8 -12 -12 -7 -4 -8 -3 -4 4 7 12 16 16 16 8z"/>
 <path d="M5263 2043 c-9 -3 -13 -27 -13 -73 0 -90 5 -100 45 -100 43 0 88 17 80 30 -3 5 -1 10 4 10 18 0 12 28 -11 53 -17 18 -31 23 -55 20 -30 -4 -32 -2 -35 30 -2 22 -7 32 -15 30z m91 -102 c15 -24 -7 -42 -48 -40 -41 2 -42 4 -32 26 8 17 19 23 43 23 17 0 34 -4 37 -9z"/>
 <path d="M5342 2020 c-16 -26 -15 -29 5 -26 9 2 23 12 31 24 13 20 13 22 -4 22 -11 0 -25 -9 -32 -20z"/>
 <path d="M3506 1051 c-39 -43 -38 -136 1 -190 44 -59 127 -88 188 -65 41 16 59 118 31 172 -16 31 -61 74 -93 91 -35 18 -107 14 -127 -8z"/>
 </g>
<g id="layer14" fill="#fffefe" stroke="none">
 <path d="M0 1670 l0 -1670 3205 0 3205 0 0 1670 0 1670 -3205 0 -3205 0 0 -1670z m5598 1497 c12 -8 17 -93 6 -121 -6 -14 -232 -16 -2405 -16 l-2399 0 0 70 0 70 208 2 c505 7 4578 2 4590 -5z m-2458 -292 c34 -18 70 -61 70 -86 0 -34 -47 -59 -114 -59 -72 0 -96 -11 -77 -34 7 -9 28 -15 53 -14 60 1 92 -28 96 -84 2 -36 7 -47 23 -51 34 -9 20 -24 -28 -30 -27 -3 -58 -9 -70 -12 -15 -5 -23 -3 -23 4 0 6 7 11 15 11 20 0 36 34 37 81 0 46 -15 69 -47 69 -31 0 -47 -22 -52 -74 -4 -36 -1 -48 17 -66 28 -28 20 -36 -18 -16 -54 28 -66 102 -23 145 17 17 17 19 -5 45 -22 25 -23 56 -2 56 5 0 -3 16 -18 36 -31 40 -27 59 17 81 33 17 114 16 149 -2z m1653 5 c-20 -8 -23 -17 -23 -65 0 -30 2 -55 4 -55 1 0 17 5 33 11 93 32 174 -97 129 -205 -28 -67 -84 -83 -135 -40 l-31 26 0 -26 c0 -31 3 -31 -51 -6 -32 14 -38 20 -21 20 22 0 22 1 22 165 0 162 0 166 -22 175 -17 6 -5 9 47 9 52 0 64 -3 48 -9z m-3107 -127 c34 -22 57 -85 51 -140 -14 -124 -177 -151 -228 -39 -24 53 -24 80 1 131 34 70 110 91 176 48z m247 -4 l27 -20 0 25 0 25 46 -17 c35 -13 41 -18 25 -20 -20 -3 -21 -9 -21 -118 l0 -114 -47 1 c-39 0 -44 2 -25 9 20 9 22 15 22 99 0 82 -2 91 -22 105 -31 22 -65 20 -78 -3 -5 -11 -10 -63 -10 -115 l0 -96 -47 1 c-27 1 -40 3 -30 6 27 7 37 44 37 136 0 87 3 97 35 115 24 13 50 8 88 -19z m2410 -10 c15 -16 27 -39 27 -52 -1 -21 -2 -20 -16 5 -16 31 -51 44 -89 34 -29 -7 -65 -59 -65 -93 0 -21 5 -22 88 -25 86 -3 87 -3 84 -28 -6 -44 -46 -75 -97 -75 -37 0 -50 6 -77 32 -28 28 -33 40 -36 96 -4 60 -2 66 27 100 48 55 106 57 154 6z m260 17 c28 -16 57 -80 57 -123 0 -78 -73 -142 -146 -128 -41 7 -91 62 -100 110 -7 39 16 114 41 135 35 29 105 32 148 6z m695 13 c17 -6 41 -26 52 -44 29 -47 25 -62 -9 -26 -32 35 -65 39 -100 15 -21 -15 -51 -70 -51 -94 0 -6 35 -10 90 -10 98 0 102 -3 78 -55 -13 -30 -55 -55 -90 -55 -36 0 -88 37 -104 75 -30 74 -6 157 56 187 41 21 39 21 78 7z m-3920 -11 c-27 -9 -28 -12 -28 -84 0 -75 0 -75 62 -169 34 -52 70 -97 80 -101 10 -3 18 -10 18 -16 0 -5 -7 -7 -16 -4 -9 3 -37 6 -62 7 -38 0 -43 2 -24 9 29 12 28 16 -11 81 -67 111 -55 107 -109 26 -51 -77 -57 -94 -33 -103 33 -13 11 -19 -57 -17 -89 2 -88 2 -61 13 12 5 52 54 88 108 l66 99 -3 69 c-3 62 -6 70 -28 81 -22 11 -15 13 60 12 69 0 80 -2 58 -11z m797 0 c-31 -18 -35 -28 -35 -104 0 -54 4 -77 18 -94 16 -19 20 -20 45 -9 24 11 30 10 37 -1 10 -17 -5 -50 -24 -50 -7 0 -25 9 -39 20 -14 11 -28 20 -31 20 -3 0 -6 -9 -6 -20 0 -24 2 -24 -51 0 -30 13 -37 20 -23 20 29 0 34 17 34 115 0 75 -2 85 -22 99 -21 15 -19 16 47 16 57 -1 66 -3 50 -12z m363 0 c-27 -9 -28 -12 -28 -89 0 -109 17 -107 101 11 l63 90 55 0 56 -1 -35 -17 c-31 -15 -140 -143 -140 -165 0 -4 8 -10 18 -14 65 -23 85 -108 36 -154 -23 -21 -37 -25 -132 -29 -59 -3 -109 -4 -111 -3 -3 2 3 9 12 16 16 11 17 31 15 177 -3 164 -3 164 -28 177 -22 11 -15 13 60 12 69 0 80 -2 58 -11z m365 0 c-22 -11 -23 -16 -23 -135 0 -67 -3 -123 -7 -122 -5 0 -26 9 -48 19 -31 15 -35 19 -17 19 21 1 22 4 22 106 0 100 -1 106 -22 115 -17 6 -5 9 47 9 58 0 66 -2 48 -11z m435 -2 c-15 -11 -18 -29 -18 -101 0 -96 10 -114 61 -115 35 0 39 13 39 119 0 81 -2 89 -22 99 -19 9 -11 11 47 11 52 0 64 -3 48 -9 -22 -9 -23 -15 -23 -102 0 -104 -12 -138 -52 -152 -22 -8 -34 -5 -66 16 l-39 26 5 -89 c3 -69 1 -89 -9 -89 -22 0 -79 24 -79 33 0 4 5 5 11 1 23 -14 29 24 29 178 0 151 -1 157 -22 172 -21 15 -19 16 42 16 56 -1 63 -2 48 -14z m313 -7 c23 -23 18 -39 -6 -19 -12 10 -18 10 -30 0 -11 -9 -15 -35 -15 -106 l0 -94 30 0 c17 0 30 -4 30 -10 0 -5 -13 -10 -30 -10 -29 0 -30 -2 -30 -42 l0 -43 -20 32 c-11 18 -29 38 -40 45 -26 16 -26 28 0 28 19 0 20 7 20 108 0 71 4 112 12 120 18 18 56 14 79 -9z m319 10 c-35 -14 -40 -26 -40 -100 l0 -66 58 1 c72 1 107 -19 121 -70 11 -41 -3 -88 -34 -114 -20 -16 -213 -32 -229 -18 -6 5 -3 8 6 8 25 0 28 21 28 185 0 159 -2 167 -45 178 -11 2 21 5 70 5 69 1 84 -2 65 -9z m1128 0 c-16 -9 -18 -30 -18 -199 0 -205 2 -199 -57 -178 -35 13 -44 27 -15 24 15 -1 17 14 20 164 3 158 2 166 -19 183 -21 17 -20 17 42 17 48 -1 60 -3 47 -11z m-2218 -364 c0 -20 -5 -25 -25 -25 -20 0 -25 5 -25 25 0 20 5 25 25 25 20 0 25 -5 25 -25z m-1120 -254 c184 -42 386 -131 534 -235 44 -31 83 -56 87 -56 4 0 10 21 14 47 10 69 33 120 68 149 29 24 37 26 111 22 97 -4 155 -30 260 -116 101 -83 139 -112 148 -112 4 0 11 12 14 28 15 61 53 129 92 165 38 34 47 37 99 37 67 0 111 -22 267 -135 56 -41 106 -75 109 -75 4 0 7 15 7 33 0 54 20 109 52 140 29 29 31 30 107 24 96 -6 228 -59 352 -139 85 -56 124 -78 133 -78 3 0 8 17 12 38 21 120 131 193 269 179 76 -8 138 -45 254 -152 192 -178 357 -265 504 -265 81 0 93 -9 107 -77 14 -71 27 -107 57 -155 13 -21 23 -42 23 -48 0 -26 -158 3 -239 45 -51 25 -113 74 -264 207 -160 141 -326 237 -409 238 -53 0 -89 -33 -95 -91 l-5 -45 120 -72 c228 -136 332 -227 379 -329 60 -130 -10 -225 -153 -210 -112 12 -250 102 -350 230 -65 83 -79 109 -134 246 -22 56 -47 113 -56 126 -9 14 -59 42 -132 75 -168 74 -238 79 -262 20 -29 -69 14 -204 133 -422 l81 -148 118 0 c99 0 118 -2 118 -15 0 -8 34 -51 75 -94 85 -89 94 -115 41 -125 -19 -4 -46 -4 -60 0 -15 3 -42 3 -62 -1 l-36 -6 81 -84 c74 -77 121 -138 121 -157 0 -5 -41 -8 -91 -8 l-91 0 -81 83 c-45 45 -98 102 -118 125 l-36 42 -114 0 -114 0 -51 73 c-53 74 -84 128 -84 147 0 6 41 10 115 10 63 0 115 3 115 6 0 4 -47 77 -104 163 -57 86 -118 185 -136 221 -54 108 -87 141 -200 198 -92 47 -107 52 -169 52 -74 0 -98 -15 -120 -73 -27 -70 -21 -80 137 -241 159 -163 197 -218 197 -294 0 -56 -23 -76 -78 -67 -112 17 -214 120 -327 330 -75 140 -122 197 -217 267 -48 36 -98 70 -110 77 -30 15 -95 14 -117 -2 -25 -19 -56 -103 -56 -154 0 -36 4 -44 34 -63 56 -34 300 -301 403 -440 103 -139 206 -347 238 -477 15 -61 15 -75 4 -99 -20 -41 -73 -44 -143 -10 -69 34 -202 142 -269 219 -69 79 -266 351 -317 437 -21 36 -55 115 -76 175 -20 61 -47 124 -59 140 -39 53 -211 144 -365 193 -251 81 -541 116 -633 77 -47 -19 -85 -62 -93 -101 -7 -40 25 -116 69 -163 127 -133 490 -285 767 -321 113 -15 189 -41 236 -82 55 -49 65 -129 21 -166 -10 -9 -73 -13 -208 -15 -172 -3 -199 -5 -239 -24 -76 -35 -97 -72 -81 -143 18 -81 141 -175 326 -249 110 -44 208 -69 386 -100 316 -54 749 -64 947 -21 66 15 112 51 112 90 0 21 -14 42 -57 84 -31 30 -55 57 -52 60 14 14 246 -91 335 -152 73 -49 99 -76 119 -126 19 -45 13 -85 -18 -115 -49 -45 -350 -127 -561 -152 -143 -17 -458 -6 -616 21 -280 47 -598 143 -795 239 -238 117 -346 229 -376 393 -10 55 -9 72 6 123 24 85 97 155 190 184 37 12 78 21 90 21 32 0 42 18 13 24 -162 33 -284 74 -421 142 -201 101 -366 243 -428 369 -105 215 13 420 277 479 89 20 276 14 394 -13z m3657 -37 c46 -35 66 -70 71 -128 10 -119 -93 -207 -207 -176 -146 39 -175 239 -44 310 49 26 140 23 180 -6z m-1784 -1045 c32 -17 77 -60 93 -91 28 -54 10 -156 -31 -172 -61 -23 -144 6 -188 65 -39 54 -40 147 -1 190 20 22 92 26 127 8z"/>
 <path d="M3022 2850 c-29 -12 -37 -33 -22 -61 12 -21 17 -21 93 -16 84 7 103 18 86 49 -19 35 -103 49 -157 28z"/>
 <path d="M4790 2740 c-16 -16 -20 -33 -20 -87 0 -75 4 -84 38 -102 64 -34 120 87 77 168 -23 45 -62 54 -95 21z"/>
 <path d="M1603 2750 c-63 -26 -79 -190 -22 -221 58 -31 103 24 104 124 0 60 -3 71 -24 88 -26 21 -27 21 -58 9z"/>
 <path d="M4200 2575 c0 -8 10 -23 22 -35 22 -21 45 -25 64 -12 11 7 34 45 34 56 0 3 -27 6 -60 6 -46 0 -60 -3 -60 -15z"/>
 <path d="M4517 2749 c-59 -34 -70 -190 -16 -220 57 -30 103 27 103 129 1 55 -2 66 -23 83 -26 21 -38 23 -64 8z"/>
 <path d="M5190 2580 c0 -17 47 -60 65 -60 19 0 55 35 55 55 0 12 -13 15 -60 15 -35 0 -60 -4 -60 -10z"/>
 <path d="M2510 2490 l0 -80 38 0 c62 0 98 55 76 115 -8 20 -56 45 -89 45 -25 0 -25 -1 -25 -80z"/>
 <path d="M3943 2573 c-9 -3 -13 -30 -13 -84 l0 -79 35 0 c49 0 85 36 85 85 0 59 -55 99 -107 78z"/>
 <path d="M4444 1569 c33 -115 158 -282 236 -313 108 -43 131 60 32 145 -51 44 -184 140 -236 170 l-38 22 6 -24z"/>
 <path d="M2664 1384 c3 -16 35 -88 71 -161 69 -139 145 -245 233 -325 50 -44 107 -74 116 -60 6 10 -10 101 -23 135 -23 61 -101 158 -226 283 -71 73 -141 137 -154 144 -23 12 -23 11 -17 -16z"/>
 <path d="M5248 2083 c-32 -20 -68 -81 -68 -117 0 -67 51 -130 116 -142 48 -9 79 2 121 39 65 60 55 172 -20 217 -40 24 -112 26 -149 3z m32 -63 c0 -55 31 -55 62 0 13 22 31 40 41 40 23 0 22 -7 -8 -46 l-26 -33 21 -21 c43 -43 15 -81 -64 -88 l-56 -4 0 96 c0 79 3 96 15 96 11 0 15 -11 15 -40z"/>
 <path d="M5280 1925 c0 -22 4 -25 34 -25 22 0 36 6 40 16 9 24 -2 34 -40 34 -30 0 -34 -3 -34 -25z"/>
 </g>

</svg>