<?xml version="1.0" encoding="utf-8"?>
<!-- Generator: Adobe Illustrator 19.0.0, SVG Export Plug-In . SVG Version: 6.00 Build 0)  -->
<svg version="1.1" id="Layer_1" xmlns="http://www.w3.org/2000/svg" xmlns:xlink="http://www.w3.org/1999/xlink" x="0px" y="0px"
	 viewBox="-275 400.6 69 44" style="enable-background:new -275 400.6 69 44;" xml:space="preserve">
<style type="text/css">
	.st0{fill:#FFFFFF;}
</style>
<path id="iconmonstr-chart-18" class="st0" d="M-231,406.3l-11,2.2l3.1,3.1l-9.8,9.7l-5.5-5.5l-13.4,13.2l2.6,2.6l10.9-10.6l5.5,5.4
	l12.4-12.3l3.1,3L-231,406.3L-231,406.3z M-261.6,418.1l-6-5.9l2.6-2.6l6,5.9L-261.6,418.1L-261.6,418.1z M-233.2,424.1l2.2,10.9
	l-11-2.2l3.1-3.1l-3.9-3.9l2.6-2.6l3.9,3.9L-233.2,424.1L-233.2,424.1z M-231,439v3.6h-44v-40h3.7V439H-231z"/>
</svg>
