<?xml version="1.0" encoding="utf-8"?>
<!-- Generator: Adobe Illustrator 19.0.0, SVG Export Plug-In . SVG Version: 6.00 Build 0)  -->
<svg version="1.1" id="Layer_1" xmlns="http://www.w3.org/2000/svg" xmlns:xlink="http://www.w3.org/1999/xlink" x="0px" y="0px"
	 viewBox="-275 400.6 69 44" style="enable-background:new -275 400.6 69 44;" xml:space="preserve">
<style type="text/css">
	.st0{fill:#FFFFFF;}
</style>
<path id="iconmonstr-id-card-20" class="st0" d="M-249,427c-0.6,1-1,2.1-1.2,3.2h-17.2v-0.8c0-2.1,0.1-3.3,2.5-3.9
	c2.6-0.6,5.2-1.2,4-3.5c-3.7-6.9-1.1-10.8,2.9-10.8c3.9,0,6.6,3.8,2.9,10.8c-1.2,2.3,1.3,2.9,4,3.5
	C-250.3,425.6-249.5,426.2-249,427z M-250.6,434h-20.7v-26.6h37.5v14.2c1.4,0.6,2.7,1.4,3.8,2.5v-20.6h-45v34.2h25.3
	C-250.2,436.6-250.5,435.3-250.6,434L-250.6,434z M-237.5,416.9h-7.5v3.8h7.5V416.9z M-245,415h7.5v-3.8h-7.5V415z M-230,433.1
	c0,4.7-3.8,8.5-8.4,8.5s-8.4-3.8-8.4-8.5c0-4.7,3.8-8.5,8.4-8.5C-233.8,424.5-230,428.3-230,433.1z M-235.8,429l-2.7,2.7l-2.7-2.7
	l-1.3,1.3l2.7,2.7l-2.7,2.7l1.3,1.3l2.7-2.7l2.7,2.7l1.3-1.3l-2.7-2.7l2.7-2.7L-235.8,429z"/>
</svg>
