<?xml version="1.0" encoding="utf-8"?>
<!-- Generator: Adobe Illustrator 19.0.0, SVG Export Plug-In . SVG Version: 6.00 Build 0)  -->
<svg version="1.1" id="Layer_1" xmlns="http://www.w3.org/2000/svg" xmlns:xlink="http://www.w3.org/1999/xlink" x="0px" y="0px"
	 viewBox="-275 400.6 69 44" style="enable-background:new -275 400.6 69 44;" xml:space="preserve">
<style type="text/css">
	.st0{fill:#FFFFFF;}
</style>
<path id="iconmonstr-lifebuoy-1" class="st0" d="M-253.5,400.6c-11.9,0-21.5,9.6-21.5,21.5s9.6,21.5,21.5,21.5s21.5-9.6,21.5-21.5
	l0,0C-232,410.2-241.6,400.6-253.5,400.6z M-237.4,430l-4.7-2.7c1.5-3.3,1.5-7.1,0-10.4l4.7-2.7C-235,419.2-235,425-237.4,430z
	 M-271.4,422.1c0-2.7,0.6-5.4,1.8-7.9l4.7,2.7c-1.5,3.3-1.5,7.1,0,10.4l-4.7,2.7C-270.8,427.5-271.4,424.8-271.4,422.1L-271.4,422.1
	z M-262.5,422.1c0-4.9,4-9,9-9s9,4,9,9s-4,9-9,9c0,0,0,0,0,0C-258.4,431.1-262.5,427.1-262.5,422.1z M-245.6,406l-2.7,4.7
	c-3.3-1.5-7.1-1.5-10.4,0l-2.7-4.7C-256.4,403.6-250.6,403.6-245.6,406L-245.6,406z M-261.4,438.2l2.7-4.7c3.3,1.5,7.1,1.5,10.4,0
	l2.7,4.7C-250.6,440.6-256.4,440.6-261.4,438.2L-261.4,438.2z"/>
</svg>
