<?xml version="1.0" encoding="utf-8"?>
<!-- Generator: Adobe Illustrator 19.0.0, SVG Export Plug-In . SVG Version: 6.00 Build 0)  -->
<svg version="1.1" id="Layer_1" xmlns="http://www.w3.org/2000/svg" xmlns:xlink="http://www.w3.org/1999/xlink" x="0px" y="0px"
	 viewBox="-275 400.6 69 44" style="enable-background:new -275 400.6 69 44;" xml:space="preserve">
<style type="text/css">
	.st0{fill:#FFFFFF;}
</style>
<path id="iconmonstr-user-15" class="st0" d="M-237,441.6h-3.2c0-4.9,0.2-5.6-2.8-6.3c-4.6-1.1-8.9-2-10.4-5.5c-0.8-2-0.6-4.2,0.5-6
	c3.2-6.1,4-11.3,2.2-14.4c-2.1-3.5-8.6-3.5-10.7,0.1c-1.8,3.1-1,8.3,2.3,14.3c1.2,1.8,1.4,4.1,0.5,6c-1.6,3.4-5.8,4.4-10.3,5.5
	c-3.1,0.7-2.9,1.4-2.9,6.3h-3.2l0-2c0-4,0.3-6.3,5-7.4c5.3-1.2,10.6-2.3,8.1-7c-7.5-13.8-2.1-21.7,5.9-21.7c7.9,0,13.4,7.5,5.9,21.7
	c-2.5,4.6,2.6,5.7,8.1,7c4.7,1.1,5,3.4,5,7.4L-237,441.6z M-258.3,432.1l1.4,3.2h1.8l1.5-3.2C-253.6,432.1-258.3,432.1-258.3,432.1z
	 M-253.6,441.6l-1.1-4.8h-2.6l-1.1,4.8H-253.6z"/>
</svg>
